SplineFontDB: 3.0
FontName: YoruboOK_FF
FullName: YoruboOK_FF
FamilyName: YorubaOK_FF
Weight: Book
Copyright: Copyright (c) 2020, Craig Cornelius
UComments: "2020-1-30: Created with FontForge (http://fontforge.org)"
Version: 001.000
ItalicAngle: 0
UnderlinePosition: 0
UnderlineWidth: 102
Ascent: 1638
Descent: 410
InvalidEm: 0
LayerCount: 2
Layer: 0 0 "Back" 1
Layer: 1 0 "Fore" 0
XUID: [1021 442 -1316551718 12203625]
StyleMap: 0x0000
FSType: 0
OS2Version: 0
OS2_WeightWidthSlopeOnly: 0
OS2_UseTypoMetrics: 1
CreationTime: 1580430030
ModificationTime: 1580433630
PfmFamily: 17
TTFWeight: 400
TTFWidth: 5
LineGap: 184
VLineGap: 0
OS2TypoAscent: 0
OS2TypoAOffset: 1
OS2TypoDescent: 0
OS2TypoDOffset: 1
OS2TypoLinegap: 184
OS2WinAscent: 0
OS2WinAOffset: 1
OS2WinDescent: 0
OS2WinDOffset: 1
HheadAscent: 0
HheadAOffset: 1
HheadDescent: 0
HheadDOffset: 1
OS2Vendor: 'PfEd'
MarkAttachClasses: 1
DEI: 91125
LangName: 1033
GaspTable: 3 8 0 10 1 65535 3 0
Encoding: ISO8859-1
UnicodeInterp: none
NameList: AGL For New Fonts
DisplaySize: -96
AntiAlias: 1
FitToEm: 1
WinInfo: 0 8 10
BeginPrivate: 0
EndPrivate
TeXData: 1 0 0 346030 173015 115343 956416 -1048576 115343 783286 444596 497025 792723 393216 433062 380633 303038 157286 324010 404750 52429 2506097 1059062 262144
BeginChars: 256 190

StartChar: exclam
Encoding: 33 33 0
Width: 1277
VWidth: 4194
Flags: HW
HStem: 0 410<509 769>
VStem: 307 664<1518 2891> 434 410<74 335>
LayerCount: 2
Fore
SplineSet
434 205 m 1xa0
 442 333 511 402 639 410 c 1
 767 402 836 333 844 205 c 1
 836 77 767 8 639 0 c 1
 511 8 442 77 434 205 c 1xa0
307 2671 m 1xc0
 329 2952 440 3118 639 3170 c 1
 838 3118 949 2952 971 2671 c 1
 971 2019 l 2
 968 1634 885 1185 721 672 c 1
 557 672 l 1
 393 1185 310 1634 307 2019 c 2
 307 2671 l 1xc0
EndSplineSet
Validated: 1
EndChar

StartChar: numbersign
Encoding: 35 35 2
Width: 3788
VWidth: 4194
Flags: HW
HStem: 0 43G<649 976 1722 2050> 778 287<274 950 1372 2023 2445 3119> 1802 287<668 1343 1765 2417 2839 3514> 2826 41G<1739 2066 2812 3140>
LayerCount: 2
Fore
SplineSet
1755 2867 m 1
 2066 2867 l 1
 1765 2089 l 1
 2527 2089 l 1
 2828 2867 l 1
 3140 2867 l 1
 2839 2089 l 1
 3625 2089 l 1
 3514 1802 l 1
 2728 1802 l 1
 2445 1065 l 1
 3232 1065 l 1
 3119 778 l 1
 2335 778 l 1
 2034 0 l 1
 1722 0 l 1
 2023 778 l 1
 1262 778 l 1
 961 0 l 1
 649 0 l 1
 950 778 l 1
 164 778 l 1
 274 1065 l 1
 1061 1065 l 1
 1343 1802 l 1
 557 1802 l 1
 668 2089 l 1
 1454 2089 l 1
 1755 2867 l 1
2134 1065 m 1
 2417 1802 l 1
 1655 1802 l 1
 1372 1065 l 1
 2134 1065 l 1
EndSplineSet
Validated: 1
EndChar

StartChar: dollar
Encoding: 36 36 3
Width: 2154
VWidth: 4194
Flags: HW
HStem: 0 43G<991 1395> 2826 41G<765 1125 1646 1673>
VStem: 180 115<637 721> 721 180<-352 3211> 1237 180<-352 3211> 1589 393<518 922> 1638 131<2114 2247>
LayerCount: 2
Fore
SplineSet
180 721 m 1xfc
 295 721 l 1
 421 410 705 240 1147 213 c 1
 1398 257 1545 404 1589 655 c 1xfc
 1594 816 1553 948 1466 1049 c 1
 1411 1158 1070 1379 442 1712 c 1
 308 1799 226 1903 195 2023 c 0
 164 2143 158 2253 180 2351 c 0
 246 2684 522 2856 1008 2867 c 1
 1243 2862 1442 2785 1606 2638 c 1
 1655 2867 l 1
 1769 2605 l 1
 1769 2114 l 1
 1638 2114 l 1xfa
 1551 2453 1338 2632 999 2654 c 1
 759 2638 617 2537 573 2351 c 1
 551 2231 585 2130 672 2048 c 1
 738 1999 896 1909 1147 1778 c 0
 1398 1647 1598 1505 1745 1352 c 1
 1914 1161 1993 928 1982 655 c 1
 1922 267 1644 49 1147 0 c 1
 836 5 579 65 377 180 c 1
 303 -25 l 1
 180 229 l 1
 180 721 l 1xfc
1237 3211 m 1
 1417 3211 l 1
 1417 -352 l 1
 1237 -352 l 1
 1237 3211 l 1
721 3211 m 1
 901 3211 l 1
 901 -352 l 1
 721 -352 l 1
 721 3211 l 1
EndSplineSet
Validated: 37
EndChar

StartChar: percent
Encoding: 37 37 4
Width: 3407
VWidth: 4194
Flags: HW
HStem: 0 213<2422 2689> 1262 213<2611 2878> 1589 213<538 805> 2613 193<1348 1681> 2851 213<727 992>
VStem: 164 287<1949 2501> 1081 287<2152 2609> 2048 287<360 912> 2966 287<563 1114>
LayerCount: 2
Fore
SplineSet
2789 1262 m 5
 2363 1246 2364 1246 2335 623 c 5
 2343 222 2343 221 2511 213 c 5
 2937 229 2937 229 2966 852 c 5
 2958 1253 2957 1254 2789 1262 c 5
3252 852 m 5
 3240 512 3240 512 3068 260 c 4
 2896 8 2896 8 2511 0 c 5
 2298 8 2298 8 2183 166 c 4
 2068 324 2068 324 2048 623 c 5
 2060 963 2060 962 2232 1214 c 4
 2404 1466 2404 1467 2789 1475 c 5
 3002 1467 3002 1467 3117 1309 c 4
 3232 1151 3232 1151 3252 852 c 5
905 2851 m 5
 479 2835 480 2835 451 2212 c 5
 459 1811 459 1810 627 1802 c 5
 1053 1818 1052 1818 1081 2441 c 5
 1073 2842 1073 2843 905 2851 c 5
971 -360 m 5
 594 -360 l 5
 2200 2847 l 5
 1930 2626 1930 2625 1348 2613 c 5
 1362 2529 1362 2529 1368 2441 c 5
 1356 2101 1356 2101 1184 1849 c 4
 1012 1597 1012 1597 627 1589 c 5
 414 1597 414 1597 299 1755 c 4
 184 1913 184 1913 164 2212 c 5
 176 2552 176 2552 348 2804 c 4
 520 3056 520 3056 905 3064 c 5
 1188 3048 1188 3048 1286 2806 c 5
 1978 2814 1978 2814 2388 3228 c 5
 2765 3228 l 5
 971 -360 l 5
EndSplineSet
Validated: 1
EndChar

StartChar: ampersand
Encoding: 38 38 5
Width: 2818
VWidth: 4194
Flags: HW
HStem: -197 106<2544 2654> 0 229<830 1319> 2662 254<939 1305>
VStem: 164 393<522 1014> 2118 274<852 1191>
LayerCount: 2
Fore
SplineSet
1163 2916 m 0
 1305 2916 1447 2862 1589 2753 c 1
 1693 2657 1745 2523 1745 2351 c 0
 1742 2236 1704 2138 1630 2056 c 1
 1237 1663 l 1
 1430 1356 l 1
 1520 1479 1677 1549 1901 1565 c 1
 2212 1549 2376 1371 2392 1032 c 1
 2365 764 2261 546 2081 377 c 1
 2245 131 2436 -24 2654 -90 c 1
 2654 -197 l 1
 1999 -197 l 1
 1769 180 l 1
 1611 60 1365 0 1032 0 c 1
 469 11 180 273 164 786 c 1
 169 1018 254 1212 418 1368 c 1
 836 1786 l 1
 614 2163 l 2
 557 2264 527 2356 524 2441 c 1
 543 2747 756 2905 1163 2916 c 0
1163 2662 m 1
 964 2654 858 2600 844 2499 c 0
 839 2444 855 2381 893 2310 c 2
 1081 1966 l 1
 1360 2245 l 2
 1401 2289 1428 2328 1440 2363 c 0
 1452 2398 1450 2441 1434 2490 c 1
 1371 2594 1280 2651 1163 2662 c 1
1016 1475 m 1
 672 1130 l 1
 598 1040 560 931 557 803 c 0
 560 432 718 240 1032 229 c 1
 1267 234 1466 303 1630 434 c 1
 1343 918 l 1
 1130 705 l 1
 999 918 l 1
 1221 1139 l 1
 1016 1475 l 1
1901 1286 m 1
 1759 1286 1648 1236 1569 1135 c 1
 1917 639 l 1
 2048 765 2115 897 2118 1036 c 0
 2121 1175 2048 1259 1901 1286 c 1
EndSplineSet
Validated: 33
EndChar

StartChar: quotesingle
Encoding: 39 39 6
Width: 901
VWidth: 4194
Flags: HW
VStem: 205 492<2787 3363>
LayerCount: 2
Fore
SplineSet
696 3195 m 0
 696 2977 645 2687 541 2327 c 1
 360 2327 l 1
 256 2687 205 2977 205 3195 c 0
 208 3367 290 3454 451 3457 c 0
 612 3454 693 3367 696 3195 c 0
EndSplineSet
Validated: 1
EndChar

StartChar: parenleft
Encoding: 40 40 7
Width: 1261
VWidth: 4194
Flags: HW
VStem: 164 410<989 1878>
LayerCount: 2
Fore
SplineSet
958 3219 m 1
 1122 3219 l 1
 767 2667 584 2073 573 1434 c 1
 584 795 767 200 1122 -352 c 1
 958 -352 l 1
 434 134 169 729 164 1434 c 1
 169 2139 434 2733 958 3219 c 1
EndSplineSet
Validated: 1
EndChar

StartChar: parenright
Encoding: 41 41 8
Width: 1261
VWidth: 4194
Flags: HW
VStem: 688 410<989 1878>
LayerCount: 2
Fore
SplineSet
303 3219 m 1
 827 2733 1093 2139 1098 1434 c 1
 1093 729 827 134 303 -352 c 1
 139 -352 l 1
 494 200 677 795 688 1434 c 1
 677 2073 494 2667 139 3219 c 1
 303 3219 l 1
EndSplineSet
Validated: 1
EndChar

StartChar: asterisk
Encoding: 42 42 9
Width: 2244
VWidth: 4194
Flags: HW
HStem: 1950 229<221 827 1384 1991>
VStem: 991 229<1180 1786 2343 2949>
LayerCount: 2
Fore
SplineSet
991 2949 m 1
 1106 3064 l 1
 1221 2949 l 1
 1221 2343 l 1
 1679 2802 l 1
 1843 2802 l 1
 1843 2638 l 1
 1384 2179 l 1
 1991 2179 l 1
 2105 2064 l 1
 1991 1950 l 1
 1384 1950 l 1
 1843 1491 l 1
 1843 1327 l 1
 1679 1327 l 1
 1221 1786 l 1
 1221 1180 l 1
 1106 1065 l 1
 991 1180 l 1
 991 1786 l 1
 532 1327 l 1
 369 1327 l 1
 369 1491 l 1
 827 1950 l 1
 221 1950 l 1
 106 2064 l 1
 221 2179 l 1
 827 2179 l 1
 369 2638 l 1
 369 2802 l 1
 532 2802 l 1
 991 2343 l 1
 991 2949 l 1
EndSplineSet
Validated: 1
EndChar

StartChar: plus
Encoding: 43 43 10
Width: 2252
VWidth: 4194
Flags: HW
HStem: 1319 229<102 1012 1241 2150>
VStem: 1012 229<410 1319 1548 2458>
LayerCount: 2
Fore
SplineSet
1012 2458 m 1
 1241 2458 l 1
 1241 1548 l 1
 2150 1548 l 1
 2150 1319 l 1
 1241 1319 l 1
 1241 410 l 1
 1012 410 l 1
 1012 1319 l 1
 102 1319 l 1
 102 1548 l 1
 1012 1548 l 1
 1012 2458 l 1
EndSplineSet
Validated: 1
EndChar

StartChar: comma
Encoding: 44 44 11
Width: 1228
VWidth: 4194
Flags: HW
VStem: 336 508<50 250>
LayerCount: 2
Fore
SplineSet
336 193 m 1
 352 327 433 399 578 410 c 1
 750 399 839 262 844 0 c 1
 833 -202 731 -354 537 -455 c 0
 496 -474 467 -470 449 -445 c 0
 431 -420 437 -390 467 -356 c 1
 579 -266 636 -150 639 -8 c 1
 557 -20 l 1
 414 -21 340 50 336 193 c 1
EndSplineSet
Validated: 33
EndChar

StartChar: hyphen
Encoding: 45 45 12
Width: 1867
VWidth: 4194
Flags: HW
HStem: 1147 262<164 1704>
LayerCount: 2
Fore
SplineSet
1704 1147 m 1
 164 1147 l 1
 164 1409 l 1
 1704 1409 l 1
 1704 1147 l 1
EndSplineSet
Validated: 1
EndChar

StartChar: period
Encoding: 46 46 13
Width: 1228
VWidth: 4194
Flags: HW
HStem: 0 410<451 712>
VStem: 377 410<74 335>
LayerCount: 2
Fore
SplineSet
377 205 m 1
 385 333 454 402 582 410 c 1
 710 402 778 333 786 205 c 1
 778 77 710 8 582 0 c 1
 454 8 385 77 377 205 c 1
EndSplineSet
Validated: 1
EndChar

StartChar: slash
Encoding: 47 47 14
Width: 2473
VWidth: 4194
Flags: HW
LayerCount: 2
Fore
SplineSet
82 -360 m 1
 1876 3228 l 1
 2253 3228 l 1
 459 -360 l 1
 82 -360 l 1
EndSplineSet
Validated: 1
EndChar

StartChar: zero
Encoding: 48 48 15
Width: 2252
VWidth: 4194
Flags: HW
HStem: 0 213<944 1308> 2654 213<944 1308>
VStem: 111 393<959 1908> 1749 393<959 1908>
LayerCount: 2
Fore
SplineSet
1126 2867 m 1
 1784 2851 2123 2373 2142 1434 c 1
 2123 495 1784 16 1126 0 c 1
 468 16 130 495 111 1434 c 1
 130 2373 468 2851 1126 2867 c 1
1126 2654 m 1
 730 2643 523 2237 504 1434 c 1
 523 631 730 224 1126 213 c 1
 1522 224 1730 631 1749 1434 c 1
 1730 2237 1522 2643 1126 2654 c 1
EndSplineSet
Validated: 1
EndChar

StartChar: one
Encoding: 49 49 16
Width: 2252
VWidth: 4194
Flags: HW
HStem: 0 106<606 653 1600 1647> 2826 41G<1115 1303>
VStem: 950 352<213 2150>
LayerCount: 2
Fore
SplineSet
950 213 m 1
 950 2150 l 1
 627 1987 l 1
 627 2093 l 1
 1143 2867 l 1
 1303 2867 l 1
 1303 213 l 1
 1647 106 l 1
 1647 0 l 1
 606 0 l 1
 606 106 l 1
 950 213 l 1
EndSplineSet
Validated: 1
EndChar

StartChar: two
Encoding: 50 50 17
Width: 2252
VWidth: 4194
Flags: HW
HStem: 0 213<741 1708> 2613 254<939 1292>
VStem: 1552 352<1750 2288>
LayerCount: 2
Fore
SplineSet
446 1917 m 1
 348 2327 l 1
 446 2687 l 1
 528 2425 l 1
 604 2709 801 2856 1118 2867 c 1
 1610 2856 1872 2567 1905 1999 c 1
 1894 1649 1743 1393 1454 1229 c 0
 979 956 741 617 741 213 c 1
 1708 213 l 1
 1839 442 l 1
 1937 442 l 1
 1937 0 l 1
 315 0 l 1
 315 213 l 1
 381 650 668 1030 1176 1352 c 1
 1416 1489 1541 1704 1552 1999 c 1
 1541 2395 1397 2599 1118 2613 c 1
 834 2608 671 2376 627 1917 c 1
 446 1917 l 1
EndSplineSet
Validated: 1
EndChar

StartChar: three
Encoding: 51 51 18
Width: 2252
VWidth: 4194
Flags: HW
HStem: 0 246<819 1370> 1442 221<979 1229> 2621 246<881 1347>
VStem: 176 193<705 909> 1638 328<1982 2375> 1729 352<578 1045>
LayerCount: 2
Fore
SplineSet
336 2286 m 1xf8
 489 2657 743 2851 1098 2867 c 1
 1661 2856 1950 2627 1966 2179 c 1xf8
 1955 1824 1792 1620 1475 1565 c 1
 1868 1467 2070 1213 2081 803 c 1
 2059 284 1732 16 1098 0 c 1
 503 11 195 314 176 909 c 1
 369 909 l 1
 418 478 661 257 1098 246 c 1
 1508 257 1718 443 1729 803 c 1xf4
 1718 1207 1468 1420 979 1442 c 1
 979 1663 l 1
 1408 1696 1627 1868 1638 2179 c 1
 1627 2463 1448 2610 1098 2621 c 1
 825 2605 618 2463 477 2195 c 1
 336 2286 l 1xf8
EndSplineSet
Validated: 1
EndChar

StartChar: four
Encoding: 52 52 19
Width: 2252
VWidth: 4194
Flags: HW
HStem: 0 106<881 927 1875 1921> 1098 229<659 1225 1577 1880> 2826 41G<1545 1577>
VStem: 1225 352<213 1098 1327 2060>
LayerCount: 2
Fore
SplineSet
1225 213 m 1
 1225 1098 l 1
 217 1098 l 1
 1577 2867 l 1
 1577 1327 l 1
 1880 1327 l 1
 1995 1556 l 1
 2036 1556 l 1
 2036 1098 l 1
 1577 1098 l 1
 1577 213 l 1
 1921 106 l 1
 1921 0 l 1
 881 0 l 1
 881 106 l 1
 1225 213 l 1
1225 1327 m 1
 1225 2060 l 1
 659 1327 l 1
 1225 1327 l 1
EndSplineSet
Validated: 1
EndChar

StartChar: five
Encoding: 53 53 20
Width: 2252
VWidth: 4194
Flags: HW
HStem: 0 213<823 1305> 1835 213<879 1324> 2654 213<776 1681>
VStem: 180 248<580 778> 1679 393<709 1390>
LayerCount: 2
Fore
SplineSet
592 2867 m 1
 1958 2867 l 1
 1958 2318 l 1
 1851 2318 l 1
 1681 2654 l 1
 776 2654 l 1
 575 1851 l 1
 690 1971 867 2037 1106 2048 c 1
 1734 2034 2057 1709 2073 1073 c 1
 2057 371 1734 14 1106 0 c 1
 549 14 240 273 180 778 c 1
 428 778 l 1
 458 412 684 224 1106 213 c 1
 1477 224 1668 510 1679 1073 c 1
 1663 1570 1472 1824 1106 1835 c 1
 888 1832 726 1739 621 1556 c 1
 264 1556 l 1
 592 2867 l 1
EndSplineSet
Validated: 1
EndChar

StartChar: six
Encoding: 54 54 21
Width: 2252
VWidth: 4194
Flags: HW
HStem: 0 213<903 1339> 1458 213<1022 1402> 2654 213<1057 1455>
VStem: 205 393<1147 1638> 1655 393<586 1167>
LayerCount: 2
Fore
SplineSet
1851 2523 m 1
 1729 2277 l 1
 1671 2277 l 1
 1649 2525 1502 2651 1229 2654 c 0
 1038 2651 888 2520 780 2259 c 0
 672 1998 612 1628 598 1147 c 1
 680 1483 890 1657 1229 1671 c 1
 1761 1660 2034 1398 2048 885 c 1
 2037 306 1729 11 1126 0 c 1
 839 8 616 99 455 272 c 0
 294 445 210 737 205 1147 c 1
 216 1658 314 2069 498 2382 c 0
 682 2695 923 2856 1221 2867 c 1
 1562 2856 1772 2741 1851 2523 c 1
1126 213 m 1
 1467 227 1644 451 1655 885 c 1
 1644 1256 1502 1447 1229 1458 c 1
 874 1447 684 1178 659 651 c 1
 684 364 839 218 1126 213 c 1
EndSplineSet
Validated: 1
EndChar

StartChar: seven
Encoding: 55 55 22
Width: 2252
VWidth: 4194
Flags: HW
HStem: 0 106<360 407> 2638 229<582 1679>
VStem: 705 369<213 629>
LayerCount: 2
Fore
SplineSet
279 2867 m 1
 2089 2867 l 1
 1901 2499 l 1
 1393 1931 1117 1171 1073 221 c 1
 1073 0 l 1
 360 0 l 1
 360 106 l 1
 705 213 l 1
 760 1229 1084 2037 1679 2638 c 1
 582 2638 l 1
 385 2245 l 1
 164 2245 l 1
 279 2867 l 1
EndSplineSet
Validated: 1
EndChar

StartChar: eight
Encoding: 56 56 23
Width: 2252
VWidth: 4194
Flags: HW
HStem: 0 213<948 1305> 1491 213<939 1314> 2654 213<913 1339>
VStem: 274 393<548 1158> 340 328<1877 2381> 1585 393<548 1158> 1585 328<1877 2381>
LayerCount: 2
Fore
SplineSet
1716 1520 m 1xea
 1885 1381 1973 1158 1978 852 c 1
 1967 295 1683 11 1126 0 c 1
 569 11 285 295 274 852 c 1xf4
 279 1158 368 1381 537 1520 c 1
 417 1637 351 1852 340 2163 c 1
 384 2616 645 2851 1126 2867 c 1
 1607 2851 1869 2616 1913 2163 c 1
 1902 1852 1836 1637 1716 1520 c 1xea
1126 213 m 1
 1421 224 1574 437 1585 852 c 1
 1574 1267 1421 1480 1126 1491 c 1
 831 1480 679 1267 668 852 c 1
 679 437 831 224 1126 213 c 1
1417 1659 m 1
 1526 1782 1582 1950 1585 2163 c 1
 1577 2482 1424 2646 1126 2654 c 1
 828 2646 676 2482 668 2163 c 1xea
 671 1950 727 1782 836 1659 c 1
 921 1686 1017 1701 1126 1704 c 0
 1235 1701 1332 1686 1417 1659 c 1
EndSplineSet
Validated: 1
EndChar

StartChar: nine
Encoding: 57 57 24
Width: 2252
VWidth: 4194
Flags: HW
HStem: 0 213<798 1196> 1196 213<851 1231> 2654 213<914 1350>
VStem: 205 393<1700 2281> 1655 393<1229 1720>
LayerCount: 2
Fore
SplineSet
401 344 m 1
 524 590 l 1
 582 590 l 1
 604 342 751 216 1024 213 c 0
 1215 216 1365 347 1473 608 c 0
 1581 869 1641 1239 1655 1720 c 1
 1573 1384 1363 1210 1024 1196 c 1
 492 1207 219 1469 205 1982 c 1
 216 2561 523 2856 1126 2867 c 1
 1413 2859 1637 2768 1798 2595 c 0
 1959 2422 2043 2130 2048 1720 c 1
 2037 1209 1939 798 1755 485 c 0
 1571 172 1330 11 1032 0 c 1
 691 11 480 126 401 344 c 1
1126 2654 m 1
 785 2640 609 2416 598 1982 c 1
 609 1611 751 1420 1024 1409 c 1
 1379 1420 1568 1689 1593 2216 c 1
 1568 2503 1413 2649 1126 2654 c 1
EndSplineSet
Validated: 1
EndChar

StartChar: less
Encoding: 60 60 27
Width: 1900
VWidth: 4194
Flags: HW
LayerCount: 2
Fore
SplineSet
164 1434 m 1
 1434 2703 l 1
 1737 2703 l 1
 467 1434 l 1
 1737 164 l 1
 1434 164 l 1
 164 1434 l 1
EndSplineSet
Validated: 1
EndChar

StartChar: equal
Encoding: 61 61 28
Width: 2252
VWidth: 4194
Flags: HW
HStem: 815 311<225 2028> 1454 311<225 2028>
LayerCount: 2
Fore
SplineSet
225 1765 m 1
 2028 1765 l 1
 2028 1454 l 1
 225 1454 l 1
 225 1765 l 1
225 1126 m 1
 2028 1126 l 1
 2028 815 l 1
 225 815 l 1
 225 1126 l 1
EndSplineSet
Validated: 1
EndChar

StartChar: greater
Encoding: 62 62 29
Width: 1900
VWidth: 4194
Flags: HW
LayerCount: 2
Fore
SplineSet
1737 1434 m 1
 467 164 l 1
 164 164 l 1
 1434 1434 l 1
 164 2703 l 1
 467 2703 l 1
 1737 1434 l 1
EndSplineSet
Validated: 1
EndChar

StartChar: question
Encoding: 63 63 30
Width: 2023
VWidth: 4194
Flags: HW
HStem: 0 410<906 1167> 2892 213<747 1232>
VStem: 840 393<64 343 942 1587> 1487 393<2140 2624>
LayerCount: 2
Fore
SplineSet
831 205 m 1
 839 333 908 402 1036 410 c 1
 1164 402 1233 331 1241 197 c 1
 1233 74 1164 8 1036 0 c 1
 908 8 839 77 831 205 c 1
164 2384 m 1
 172 2837 463 3078 1036 3105 c 1
 1579 3078 1861 2840 1880 2392 c 1
 1861 1911 1645 1641 1233 1581 c 1
 1233 942 l 1
 1094 664 l 1
 1056 623 1017 623 979 664 c 1
 840 942 l 1
 840 1696 l 1
 1258 1756 1473 1988 1487 2392 c 1
 1473 2711 1323 2878 1036 2892 c 1
 697 2881 507 2772 463 2564 c 1
 531 2529 568 2469 573 2384 c 1
 565 2256 497 2187 369 2179 c 1
 241 2187 172 2256 164 2384 c 1
EndSplineSet
Validated: 33
EndChar

StartChar: at
Encoding: 64 64 31
Width: 2842
VWidth: 4194
Flags: HW
HStem: 0 213<1204 1782> 901 270<1207 1496 2062 2237> 1991 213<1221 1584> 2654 213<1116 1694>
VStem: 164 295<1055 1841> 762 295<1355 1810> 1704 229<1349 1905> 2367 295<1469 2043>
LayerCount: 2
Fore
SplineSet
1352 2867 m 1
 1762 2856 2078 2749 2302 2544 c 0
 2526 2339 2646 2086 2662 1786 c 1
 2657 1573 2607 1375 2511 1192 c 0
 2415 1009 2300 912 2163 901 c 1
 2026 912 1898 983 1778 1114 c 1
 1647 972 1496 901 1327 901 c 1
 1160 906 1026 972 922 1098 c 0
 818 1224 765 1388 762 1593 c 1
 776 1986 976 2190 1364 2204 c 1
 1481 2201 1595 2181 1704 2146 c 2
 1933 2073 l 1
 1933 1360 l 1
 2009 1240 2087 1176 2163 1171 c 1
 2229 1179 2277 1248 2310 1378 c 0
 2343 1508 2362 1641 2367 1778 c 1
 2356 2035 2269 2242 2105 2400 c 0
 1941 2558 1691 2643 1352 2654 c 1
 1112 2649 902 2540 725 2327 c 0
 548 2114 459 1805 459 1401 c 1
 470 1057 564 774 741 553 c 0
 918 332 1182 218 1532 213 c 1
 1925 235 2228 437 2441 819 c 1
 2679 705 l 1
 2433 252 2051 16 1532 0 c 1
 1068 11 726 144 508 401 c 0
 290 658 175 991 164 1401 c 1
 169 1882 282 2242 500 2482 c 0
 718 2722 1002 2851 1352 2867 c 1
1704 1872 m 1
 1614 1948 1501 1988 1364 1991 c 1
 1170 1977 1068 1844 1057 1593 c 1
 1062 1448 1092 1343 1145 1276 c 0
 1198 1209 1259 1174 1327 1171 c 0
 1477 1176 1603 1256 1704 1409 c 1
 1704 1872 l 1
EndSplineSet
Validated: 1
EndChar

StartChar: A
Encoding: 65 65 32
Width: 3186
VWidth: 4194
Flags: HW
HStem: 0 106<164 210 2977 3023> 827 262<1098 1909> 2826 41G<1524 1558>
LayerCount: 2
Fore
SplineSet
1098 1090 m 1
 1909 1090 l 1
 1491 2081 l 1
 1098 1090 l 1
1540 2867 m 1
 2679 213 l 1
 3023 106 l 1
 3023 0 l 1
 2073 0 l 1
 2286 213 l 1
 2023 827 l 1
 999 827 l 1
 762 213 l 1
 975 0 l 1
 164 0 l 1
 164 106 l 1
 508 213 l 1
 1540 2867 l 1
EndSplineSet
Validated: 1
EndChar

StartChar: B
Encoding: 66 66 33
Width: 2727
VWidth: 4194
Flags: HW
HStem: 0 213<901 1824> 0 106<164 210> 1327 213<901 1672> 2654 213<901 1676> 2761 106<164 210>
VStem: 508 393<213 1327 1540 2654> 1925 393<1825 2368> 2171 393<534 1008>
LayerCount: 2
Fore
SplineSet
901 2654 m 1x36
 901 1540 l 1
 1450 1540 l 2
 1619 1543 1740 1592 1812 1688 c 0
 1884 1784 1922 1920 1925 2097 c 0
 1922 2274 1884 2411 1812 2507 c 0
 1740 2603 1619 2651 1450 2654 c 2
 901 2654 l 1x36
901 1327 m 1
 901 213 l 1
 1565 213 l 1
 1964 224 2166 410 2171 770 c 1xa5
 2166 1130 1964 1316 1565 1327 c 1
 901 1327 l 1
508 213 m 1
 508 2654 l 1xb5
 164 2761 l 1
 164 2867 l 1x2d
 1450 2867 l 1
 1679 2862 1879 2802 2048 2687 c 0
 2217 2572 2307 2376 2318 2097 c 1x36
 2313 1818 2209 1617 2007 1491 c 1
 2373 1406 2559 1166 2564 770 c 1
 2559 273 2226 16 1565 0 c 1xb5
 164 0 l 1
 164 106 l 1x65
 508 213 l 1
EndSplineSet
Validated: 1
EndChar

StartChar: C
Encoding: 67 67 34
Width: 2727
VWidth: 4194
Flags: HW
HStem: 0 213<1226 1793> 2654 213<1226 1777>
VStem: 164 393<1030 1848> 2318 139<1966 2085>
LayerCount: 2
Fore
SplineSet
1532 2867 m 1
 1794 2845 1996 2774 2138 2654 c 1
 2318 2834 l 1
 2458 2417 l 1
 2458 1966 l 1
 2318 1966 l 1
 2192 2408 1931 2638 1532 2654 c 1
 898 2643 573 2239 557 1442 c 1
 573 634 898 224 1532 213 c 1
 1931 229 2231 426 2433 803 c 1
 2564 672 l 1
 2362 235 2018 11 1532 0 c 1
 647 11 191 492 164 1442 c 1
 191 2381 647 2856 1532 2867 c 1
EndSplineSet
Validated: 1
EndChar

StartChar: D
Encoding: 68 68 35
Width: 2719
VWidth: 4194
Flags: HW
HStem: 0 213<901 1628> 0 106<164 210> 2654 213<901 1628> 2761 106<164 210>
VStem: 508 393<213 2654> 2163 393<992 1875>
LayerCount: 2
Fore
SplineSet
508 2654 m 1xac
 164 2761 l 1
 164 2867 l 1x1c
 1393 2867 l 1
 2152 2856 2540 2379 2556 1434 c 1
 2540 489 2152 11 1393 0 c 1xac
 164 0 l 1
 164 106 l 1x4c
 508 213 l 1
 508 2654 l 1xac
1393 2654 m 1xac
 901 2654 l 1
 901 213 l 1
 1393 213 l 1
 1895 229 2152 637 2163 1434 c 1
 2152 2231 1895 2638 1393 2654 c 1xac
EndSplineSet
Validated: 1
EndChar

StartChar: E
Encoding: 69 69 36
Width: 2457
VWidth: 4194
Flags: HW
HStem: 0 213<901 1982> 0 106<164 210> 1327 213<901 1761> 2654 213<901 1982> 2761 106<164 210>
VStem: 508 393<213 1327 1540 2654>
LayerCount: 2
Fore
SplineSet
508 213 m 1xa4
 508 2654 l 1xb4
 164 2761 l 1
 164 2867 l 1
 2294 2867 l 1x2c
 2294 2245 l 1
 2187 2245 l 1
 1982 2654 l 1
 901 2654 l 1
 901 1540 l 1
 1761 1540 l 1
 1876 1884 l 1
 1982 1884 l 1
 1982 983 l 1
 1876 983 l 1
 1761 1327 l 1
 901 1327 l 1
 901 213 l 1
 1982 213 l 1xb4
 2187 623 l 1
 2294 623 l 1
 2294 0 l 1
 164 0 l 1
 164 106 l 1x64
 508 213 l 1xa4
EndSplineSet
Validated: 1
EndChar

StartChar: F
Encoding: 70 70 37
Width: 2457
VWidth: 4194
Flags: HW
HStem: 0 106<164 210 1199 1245> 1327 213<901 1761> 2654 213<901 1982> 2761 106<164 210>
VStem: 508 393<213 1327 1540 2654>
LayerCount: 2
Fore
SplineSet
508 213 m 1xe8
 508 2654 l 1xe8
 164 2761 l 1
 164 2867 l 1
 2294 2867 l 1xd8
 2294 2245 l 1
 2187 2245 l 1
 1982 2654 l 1
 901 2654 l 1
 901 1540 l 1
 1761 1540 l 1
 1876 1884 l 1
 1982 1884 l 1
 1982 983 l 1
 1876 983 l 1
 1761 1327 l 1
 901 1327 l 1
 901 213 l 1
 1245 106 l 1
 1245 0 l 1
 164 0 l 1
 164 106 l 1
 508 213 l 1xe8
EndSplineSet
Validated: 1
EndChar

StartChar: G
Encoding: 71 71 38
Width: 3203
VWidth: 4194
Flags: HW
HStem: 0 213<1226 1898> 1163 229<1565 1942 2662 3039> 2654 213<1226 1777>
VStem: 164 393<1030 1848> 2105 393<341 950> 2318 139<1966 2085>
LayerCount: 2
Fore
SplineSet
1532 2867 m 1xf8
 1794 2845 1996 2774 2138 2654 c 1
 2318 2834 l 1
 2458 2417 l 1
 2458 1966 l 1
 2318 1966 l 1xf4
 2192 2408 1931 2638 1532 2654 c 1
 898 2643 573 2239 557 1442 c 1
 573 634 898 224 1532 213 c 1
 1903 224 2094 295 2105 426 c 1
 2105 950 l 1
 1942 1163 l 1
 1565 1163 l 1
 1565 1393 l 1
 3039 1393 l 1
 3039 1163 l 1
 2662 1163 l 1
 2499 950 l 1
 2499 426 l 1
 2485 153 2163 11 1532 0 c 1
 647 11 191 492 164 1442 c 1
 191 2381 647 2856 1532 2867 c 1xf8
EndSplineSet
Validated: 1
EndChar

StartChar: H
Encoding: 72 72 39
Width: 3112
VWidth: 4194
Flags: HW
HStem: 0 106<164 210 2903 2949> 1327 213<901 2212> 2761 106<164 210 2903 2949>
VStem: 508 393<213 1327 1540 2654> 2212 393<213 1327 1540 2654>
CounterMasks: 1 e0
LayerCount: 2
Fore
SplineSet
508 213 m 1
 508 2654 l 1
 164 2761 l 1
 164 2867 l 1
 1114 2867 l 1
 901 2654 l 1
 901 1540 l 1
 2212 1540 l 1
 2212 2654 l 1
 1999 2867 l 1
 2949 2867 l 1
 2949 2761 l 1
 2605 2654 l 1
 2605 213 l 1
 2949 106 l 1
 2949 0 l 1
 1999 0 l 1
 2212 213 l 1
 2212 1327 l 1
 901 1327 l 1
 901 213 l 1
 1114 0 l 1
 164 0 l 1
 164 106 l 1
 508 213 l 1
EndSplineSet
Validated: 1
EndChar

StartChar: I
Encoding: 73 73 40
Width: 1409
VWidth: 4194
Flags: HW
HStem: 0 106<164 210 1199 1245> 2761 106<164 210 1199 1245>
VStem: 508 393<213 2654>
LayerCount: 2
Fore
SplineSet
508 213 m 1
 508 2654 l 1
 164 2761 l 1
 164 2867 l 1
 1245 2867 l 1
 1245 2761 l 1
 901 2654 l 1
 901 213 l 1
 1245 106 l 1
 1245 0 l 1
 164 0 l 1
 164 106 l 1
 508 213 l 1
EndSplineSet
Validated: 1
EndChar

StartChar: J
Encoding: 74 74 41
Width: 2965
VWidth: 4194
Flags: HW
HStem: 0 221<764 1257> 2613 254<877 1507 1901 2531>
VStem: 1507 393<593 2613>
LayerCount: 2
Fore
SplineSet
1507 967 m 1
 1507 2613 l 1
 877 2613 l 1
 713 2286 l 1
 606 2286 l 1
 606 2867 l 1
 2802 2867 l 1
 2802 2286 l 1
 2695 2286 l 1
 2531 2613 l 1
 1901 2613 l 1
 1901 967 l 1
 1890 601 1809 350 1659 213 c 0
 1509 76 1300 5 1032 0 c 1
 775 5 571 62 418 168 c 0
 265 274 180 429 164 631 c 1
 175 789 256 868 406 868 c 0
 556 868 636 789 647 631 c 1
 636 546 598 482 532 438 c 1
 606 304 773 232 1032 221 c 1
 1201 221 1321 273 1389 377 c 0
 1457 481 1496 678 1507 967 c 1
EndSplineSet
Validated: 1
EndChar

StartChar: K
Encoding: 75 75 42
Width: 3002
VWidth: 4194
Flags: HW
HStem: 0 106<164 210 1199 1245> 2761 106<164 210 1199 1245>
VStem: 508 393<213 1016 1450 2654>
LayerCount: 2
Fore
SplineSet
508 213 m 1
 508 2654 l 1
 164 2761 l 1
 164 2867 l 1
 1245 2867 l 1
 1245 2761 l 1
 901 2654 l 1
 901 1450 l 1
 2122 2671 l 1
 1851 2761 l 1
 1851 2867 l 1
 2732 2867 l 1
 2732 2761 l 1
 2548 2671 l 1
 1540 1663 l 1
 2638 205 l 1
 2839 106 l 1
 2839 0 l 1
 1937 0 l 1
 1937 106 l 1
 2138 205 l 1
 1311 1425 l 1
 901 1016 l 1
 901 213 l 1
 1245 106 l 1
 1245 0 l 1
 164 0 l 1
 164 106 l 1
 508 213 l 1
EndSplineSet
Validated: 1
EndChar

StartChar: L
Encoding: 76 76 43
Width: 2523
VWidth: 4194
Flags: HW
HStem: 0 213<901 2023> 0 106<164 210> 2761 106<164 210 1199 1245>
VStem: 508 393<213 2654>
LayerCount: 2
Fore
SplineSet
508 213 m 1xb0
 508 2654 l 1
 164 2761 l 1
 164 2867 l 1
 1245 2867 l 1
 1245 2761 l 1
 901 2654 l 1
 901 213 l 1
 2023 213 l 1xb0
 2195 557 l 1
 2359 557 l 1
 2359 0 l 1
 164 0 l 1
 164 106 l 1x70
 508 213 l 1xb0
EndSplineSet
Validated: 1
EndChar

StartChar: M
Encoding: 77 77 44
Width: 3833
VWidth: 4194
Flags: HW
HStem: 0 106<164 210 1199 1245 2589 2635 3624 3670> 2761 106<164 210 3624 3670>
VStem: 508 393<213 2654> 2933 393<213 2654>
LayerCount: 2
Fore
SplineSet
508 213 m 1
 508 2654 l 1
 164 2761 l 1
 164 2867 l 1
 1163 2867 l 1
 1917 606 l 1
 2671 2867 l 1
 3670 2867 l 1
 3670 2761 l 1
 3326 2654 l 1
 3326 213 l 1
 3670 106 l 1
 3670 0 l 1
 2589 0 l 1
 2589 106 l 1
 2933 213 l 1
 2933 2654 l 1
 1933 0 l 1
 1901 0 l 1
 901 2654 l 1
 901 213 l 1
 1245 106 l 1
 1245 0 l 1
 164 0 l 1
 164 106 l 1
 508 213 l 1
EndSplineSet
Validated: 1
EndChar

StartChar: N
Encoding: 78 78 45
Width: 3260
VWidth: 4194
Flags: HW
HStem: 0 106<164 210 1199 1245 3050 3097> 2761 106<164 210 2015 2062 3050 3097>
VStem: 508 393<213 2589> 2359 393<279 2654>
LayerCount: 2
Fore
SplineSet
508 213 m 1
 508 2654 l 1
 164 2761 l 1
 164 2867 l 1
 1065 2867 l 1
 2359 279 l 1
 2359 2654 l 1
 2015 2761 l 1
 2015 2867 l 1
 3097 2867 l 1
 3097 2761 l 1
 2753 2654 l 1
 2753 213 l 1
 3097 106 l 1
 3097 0 l 1
 2195 0 l 1
 901 2589 l 1
 901 213 l 1
 1245 106 l 1
 1245 0 l 1
 164 0 l 1
 164 106 l 1
 508 213 l 1
EndSplineSet
Validated: 1
EndChar

StartChar: O
Encoding: 79 79 46
Width: 2916
VWidth: 4194
Flags: HW
HStem: 0 213<1189 1728> 2654 213<1189 1728>
VStem: 164 393<1024 1843> 2359 393<1024 1843>
LayerCount: 2
Fore
SplineSet
1458 2867 m 1
 2305 2856 2737 2379 2753 1434 c 1
 2737 489 2305 11 1458 0 c 1
 611 11 180 489 164 1434 c 1
 180 2379 611 2856 1458 2867 c 1
1458 2654 m 1
 874 2643 573 2237 557 1434 c 1
 573 631 874 224 1458 213 c 1
 2042 224 2343 631 2359 1434 c 1
 2343 2237 2042 2643 1458 2654 c 1
EndSplineSet
Validated: 1
EndChar

StartChar: P
Encoding: 80 80 47
Width: 2482
VWidth: 4194
Flags: HW
HStem: 0 106<164 210 1192 1237> 1327 213<901 1676> 2654 213<901 1676> 2761 106<164 210>
VStem: 508 393<213 1327 1540 2654> 1925 393<1826 2368>
LayerCount: 2
Fore
SplineSet
901 2654 m 1xec
 901 1540 l 1
 1450 1540 l 2
 1619 1543 1740 1592 1812 1688 c 0
 1884 1784 1922 1920 1925 2097 c 0
 1922 2274 1884 2411 1812 2507 c 0
 1740 2603 1619 2651 1450 2654 c 2
 901 2654 l 1xec
901 1327 m 1
 901 213 l 1
 1237 106 l 1
 1237 0 l 1
 164 0 l 1
 164 106 l 1
 508 213 l 1
 508 2654 l 1xec
 164 2761 l 1
 164 2867 l 1xdc
 1450 2867 l 1
 1679 2862 1879 2802 2048 2687 c 0
 2217 2572 2307 2376 2318 2097 c 1
 2307 1818 2217 1622 2048 1507 c 0
 1879 1392 1679 1332 1450 1327 c 1
 901 1327 l 1
EndSplineSet
Validated: 1
EndChar

StartChar: Q
Encoding: 81 81 48
Width: 2916
VWidth: 4194
Flags: HW
HStem: -795 213<2322 2671> 0 213<1183 1685> 623 213<1302 1552> 2654 213<1189 1728>
VStem: 164 389<1019 1843> 2359 393<1010 1843>
LayerCount: 2
Fore
SplineSet
1458 2867 m 1
 2305 2856 2737 2379 2753 1434 c 1
 2739 732 2503 291 2044 111 c 1
 2112 -345 2250 -577 2458 -582 c 1
 2690 -574 2872 -462 3006 -246 c 1
 3069 -216 3102 -248 3105 -344 c 1
 3007 -633 2791 -784 2458 -795 c 1
 2073 -790 1833 -520 1737 14 c 1
 1737 20 l 1
 1677 9 1584 3 1458 0 c 0
 611 11 180 489 164 1434 c 1
 180 2379 611 2856 1458 2867 c 1
553 1434 m 1
 567 1003 656 689 823 492 c 1
 954 713 1166 828 1458 836 c 1
 1750 828 1927 677 1987 385 c 1
 2227 584 2351 934 2359 1434 c 1
 2343 2237 2042 2643 1458 2654 c 1
 874 2643 572 2237 553 1434 c 1
1688 242 m 1
 1644 493 1567 620 1458 623 c 1
 1294 618 1163 509 1065 299 c 1
 1177 244 1308 216 1458 213 c 0
 1543 214 1620 224 1688 242 c 1
EndSplineSet
Validated: 33
EndChar

StartChar: R
Encoding: 82 82 49
Width: 3014
VWidth: 4194
Flags: HW
HStem: 0 106<164 210 2804 2851> 1327 213<901 1532> 2654 213<901 1676> 2761 106<164 210>
VStem: 508 393<213 1327 1540 2654> 1925 393<1819 2368>
LayerCount: 2
Fore
SplineSet
901 2654 m 1xec
 901 1540 l 1
 1450 1540 l 2
 1619 1543 1740 1592 1812 1688 c 0
 1884 1784 1922 1920 1925 2097 c 0
 1922 2274 1884 2411 1812 2507 c 0
 1740 2603 1619 2651 1450 2654 c 2
 901 2654 l 1xec
901 1327 m 1
 901 213 l 1
 1114 0 l 1
 164 0 l 1
 164 106 l 1
 508 213 l 1
 508 2654 l 1xec
 164 2761 l 1
 164 2867 l 1xdc
 1450 2867 l 1
 1679 2862 1879 2802 2048 2687 c 0
 2217 2572 2307 2376 2318 2097 c 1
 2310 1887 2267 1728 2189 1620 c 0
 2111 1512 2018 1444 1909 1417 c 1
 2507 213 l 1
 2851 106 l 1
 2851 0 l 1
 1876 0 l 1
 2089 213 l 1
 1532 1327 l 1
 901 1327 l 1
EndSplineSet
Validated: 1
EndChar

StartChar: S
Encoding: 83 83 50
Width: 2154
VWidth: 4194
Flags: HW
HStem: 0 43G<991 1395> 2826 41G<765 1125 1646 1673>
VStem: 180 115<637 721> 1589 393<518 922> 1638 131<2114 2247>
LayerCount: 2
Fore
SplineSet
180 721 m 1xf0
 295 721 l 1
 421 410 705 240 1147 213 c 1
 1398 257 1545 404 1589 655 c 1xf0
 1594 816 1553 948 1466 1049 c 1
 1411 1158 1070 1379 442 1712 c 1
 308 1799 226 1903 195 2023 c 0
 164 2143 158 2253 180 2351 c 0
 246 2684 522 2856 1008 2867 c 1
 1243 2862 1442 2785 1606 2638 c 1
 1655 2867 l 1
 1769 2605 l 1
 1769 2114 l 1
 1638 2114 l 1xe8
 1551 2453 1338 2632 999 2654 c 1
 759 2638 617 2537 573 2351 c 1
 551 2231 585 2130 672 2048 c 1
 738 1999 896 1909 1147 1778 c 0
 1398 1647 1598 1505 1745 1352 c 1
 1914 1161 1993 928 1982 655 c 1
 1922 267 1644 49 1147 0 c 1
 836 5 579 65 377 180 c 1
 303 -25 l 1
 180 229 l 1
 180 721 l 1xf0
EndSplineSet
Validated: 33
EndChar

StartChar: T
Encoding: 84 84 51
Width: 2654
VWidth: 4194
Flags: HW
HStem: 0 106<786 833 1821 1868> 2654 213<377 1130 1524 2277>
VStem: 164 106<2310 2356> 1130 393<213 2654> 2384 106<2310 2356>
CounterMasks: 1 38
LayerCount: 2
Fore
SplineSet
1130 213 m 1
 1130 2654 l 1
 377 2654 l 1
 270 2310 l 1
 164 2310 l 1
 164 2867 l 1
 2490 2867 l 1
 2490 2310 l 1
 2384 2310 l 1
 2277 2654 l 1
 1524 2654 l 1
 1524 213 l 1
 1868 106 l 1
 1868 0 l 1
 786 0 l 1
 786 106 l 1
 1130 213 l 1
EndSplineSet
Validated: 1
EndChar

StartChar: U
Encoding: 85 85 52
Width: 3063
VWidth: 4194
Flags: HW
HStem: 0 213<1267 1797> 2761 106<164 210 2854 2900>
VStem: 508 393<586 2654> 2163 393<586 2654>
LayerCount: 2
Fore
SplineSet
164 2867 m 1
 1114 2867 l 1
 901 2654 l 1
 901 844 l 1
 912 429 1122 218 1532 213 c 1
 1942 218 2152 429 2163 844 c 1
 2163 2654 l 1
 1950 2867 l 1
 2900 2867 l 1
 2900 2761 l 1
 2556 2654 l 1
 2556 844 l 1
 2534 298 2193 16 1532 0 c 1
 871 16 530 298 508 844 c 1
 508 2654 l 1
 164 2761 l 1
 164 2867 l 1
EndSplineSet
Validated: 1
EndChar

StartChar: V
Encoding: 86 86 53
Width: 3063
VWidth: 4194
Flags: HW
HStem: 0 43G<1495 1569> 2826 41G<164 1155 1909 2900>
LayerCount: 2
Fore
SplineSet
164 2867 m 1
 1155 2867 l 1
 860 2654 l 1
 1532 639 l 1
 2204 2654 l 1
 1909 2867 l 1
 2900 2867 l 1
 2900 2761 l 1
 2605 2654 l 1
 1552 0 l 1
 1511 0 l 1
 459 2654 l 1
 164 2761 l 1
 164 2867 l 1
EndSplineSet
Validated: 1
EndChar

StartChar: W
Encoding: 87 87 54
Width: 4300
VWidth: 4194
Flags: HW
HStem: 0 43G<1495 1569 2732 2806> 2826 41G<164 1155 1401 2392 3146 4137>
LayerCount: 2
Fore
SplineSet
1401 2867 m 1
 2392 2867 l 1
 2097 2654 l 1
 2769 639 l 1
 3441 2654 l 1
 3146 2867 l 1
 4137 2867 l 1
 4137 2761 l 1
 3842 2654 l 1
 2789 0 l 1
 2748 0 l 1
 2150 1507 l 1
 1552 0 l 1
 1511 0 l 1
 459 2654 l 1
 164 2761 l 1
 164 2867 l 1
 1155 2867 l 1
 860 2654 l 1
 1532 639 l 1
 1972 1960 l 1
 1696 2654 l 1
 1401 2761 l 1
 1401 2867 l 1
EndSplineSet
Validated: 1
EndChar

StartChar: X
Encoding: 88 88 55
Width: 3162
VWidth: 4194
Flags: HW
HStem: 0 106<164 210 2936 2982> 2761 106<426 472 2723 2769>
LayerCount: 2
Fore
SplineSet
1399 1657 m 1
 770 2654 l 1
 426 2761 l 1
 426 2867 l 1
 1311 2867 l 1
 1098 2654 l 1
 1561 1919 l 1
 2015 2654 l 1
 1802 2867 l 1
 2769 2867 l 1
 2769 2761 l 1
 2425 2654 l 1
 1769 1591 l 1
 2638 213 l 1
 2982 106 l 1
 2982 0 l 1
 2097 0 l 1
 2310 213 l 1
 1606 1329 l 1
 918 213 l 1
 1130 0 l 1
 164 0 l 1
 164 106 l 1
 508 213 l 1
 1399 1657 l 1
EndSplineSet
Validated: 1
EndChar

StartChar: Y
Encoding: 89 89 56
Width: 2752
VWidth: 4194
Flags: HW
HStem: 0 106<836 882 1871 1917> 2761 106<164 210 2542 2589>
VStem: 1180 393<213 1311>
LayerCount: 2
Fore
SplineSet
164 2867 m 1
 1049 2867 l 1
 836 2654 l 1
 1376 1573 l 1
 1917 2654 l 1
 1704 2867 l 1
 2589 2867 l 1
 2589 2761 l 1
 2245 2654 l 1
 1573 1311 l 1
 1573 213 l 1
 1917 106 l 1
 1917 0 l 1
 836 0 l 1
 836 106 l 1
 1180 213 l 1
 1180 1311 l 1
 508 2654 l 1
 164 2761 l 1
 164 2867 l 1
EndSplineSet
Validated: 1
EndChar

StartChar: Z
Encoding: 90 90 57
Width: 2703
VWidth: 4194
Flags: HW
HStem: 0 213<819 2220> 2654 213<483 1884>
LayerCount: 2
Fore
SplineSet
164 106 m 1
 377 213 l 1
 1884 2654 l 1
 483 2654 l 1
 270 2228 l 1
 164 2228 l 1
 164 2867 l 1
 2540 2867 l 1
 2540 2761 l 1
 2327 2654 l 1
 819 213 l 1
 2220 213 l 1
 2433 639 l 1
 2540 639 l 1
 2540 0 l 1
 164 0 l 1
 164 106 l 1
EndSplineSet
Validated: 1
EndChar

StartChar: bracketleft
Encoding: 91 91 58
Width: 1433
VWidth: 4194
Flags: HW
HStem: -352 246<762 1352> 2974 246<762 1352>
VStem: 393 369<-106 2974>
LayerCount: 2
Fore
SplineSet
393 3219 m 1
 1352 3219 l 1
 1352 2974 l 1
 762 2974 l 1
 762 -106 l 1
 1352 -106 l 1
 1352 -352 l 1
 393 -352 l 1
 393 3219 l 1
EndSplineSet
Validated: 1
EndChar

StartChar: backslash
Encoding: 92 92 59
Width: 2473
VWidth: 4194
Flags: HW
LayerCount: 2
Fore
SplineSet
2253 -360 m 1
 1876 -360 l 1
 82 3228 l 1
 459 3228 l 1
 2253 -360 l 1
EndSplineSet
Validated: 1
EndChar

StartChar: bracketright
Encoding: 93 93 60
Width: 1433
VWidth: 4194
Flags: HW
HStem: -352 246<82 672> 2974 246<82 672>
VStem: 672 369<-106 2974>
LayerCount: 2
Fore
SplineSet
1040 -352 m 1
 82 -352 l 1
 82 -106 l 1
 672 -106 l 1
 672 2974 l 1
 82 2974 l 1
 82 3219 l 1
 1040 3219 l 1
 1040 -352 l 1
EndSplineSet
Validated: 1
EndChar

StartChar: asciicircum
Encoding: 94 94 61
Width: 3751
VWidth: 4194
Flags: HW
HStem: 0 106<410 456 1445 1491 3296 3342> 1008 279<164 754 1147 1798 2241 2605 2998 3588> 1671 279<164 754 1147 1466 1909 2605 2998 3588> 2761 106<410 456 2261 2307 3296 3342>
VStem: 754 393<213 1008 1286 1671 1950 2589> 2605 393<279 1008 1286 1671 1950 2654>
LayerCount: 2
Fore
SplineSet
754 213 m 1
 754 1008 l 1
 164 1008 l 1
 164 1286 l 1
 754 1286 l 1
 754 1671 l 1
 164 1671 l 1
 164 1950 l 1
 754 1950 l 1
 754 2654 l 1
 410 2761 l 1
 410 2867 l 1
 1311 2867 l 1
 1769 1950 l 1
 2605 1950 l 1
 2605 2654 l 1
 2261 2761 l 1
 2261 2867 l 1
 3342 2867 l 1
 3342 2761 l 1
 2998 2654 l 1
 2998 1950 l 1
 3588 1950 l 1
 3588 1671 l 1
 2998 1671 l 1
 2998 1286 l 1
 3588 1286 l 1
 3588 1008 l 1
 2998 1008 l 1
 2998 213 l 1
 3342 106 l 1
 3342 0 l 1
 2441 0 l 1
 1937 1008 l 1
 1147 1008 l 1
 1147 213 l 1
 1491 106 l 1
 1491 0 l 1
 410 0 l 1
 410 106 l 1
 754 213 l 1
2605 1008 m 1
 2241 1008 l 1
 2605 279 l 1
 2605 1008 l 1
2605 1671 m 1
 1909 1671 l 1
 2101 1286 l 1
 2605 1286 l 1
 2605 1671 l 1
1147 1950 m 1
 1466 1950 l 1
 1147 2589 l 1
 1147 1950 l 1
1147 1286 m 1
 1798 1286 l 1
 1606 1671 l 1
 1147 1671 l 1
 1147 1286 l 1
EndSplineSet
Validated: 1
EndChar

StartChar: underscore
Encoding: 95 95 62
Width: 3014
VWidth: 4194
Flags: HW
HStem: -705 393<-25 3039>
LayerCount: 2
Fore
SplineSet
-25 -311 m 1
 3039 -311 l 1
 3039 -705 l 1
 -25 -705 l 1
 -25 -311 l 1
EndSplineSet
Validated: 1
EndChar

StartChar: grave
Encoding: 96 96 63
Width: 1540
VWidth: 4194
Flags: HW
LayerCount: 2
Fore
SplineSet
475 2671 m 1
 399 2780 410 2870 508 2941 c 1
 628 2990 715 2968 770 2875 c 1
 1122 2171 l 1
 1125 2119 1101 2094 1049 2097 c 1
 475 2671 l 1
EndSplineSet
Validated: 33
EndChar

StartChar: a
Encoding: 97 97 64
Width: 1884
VWidth: 4194
Flags: HW
HStem: 0 213<641 1057> 958 213<622 1004> 1655 213<670 1029>
VStem: 164 287<404 771> 1208 393<330 794 983 1450>
LayerCount: 2
Fore
SplineSet
197 1360 m 1
 230 1499 306 1618 428 1716 c 0
 550 1814 691 1865 852 1868 c 1
 1070 1863 1246 1811 1380 1714 c 0
 1514 1617 1588 1443 1602 1192 c 1
 1602 225 l 1
 1720 106 l 1
 1720 0 l 1
 1393 0 l 1
 1208 94 l 1
 1134 34 1006 3 823 0 c 0
 594 3 428 61 326 174 c 0
 224 287 169 422 164 578 c 1
 169 775 229 921 344 1018 c 0
 459 1115 598 1166 762 1171 c 1
 972 1163 1121 1100 1208 983 c 1
 1208 1192 l 1
 1203 1348 1173 1462 1118 1536 c 0
 1063 1610 975 1650 852 1655 c 1
 765 1652 686 1627 618 1581 c 0
 550 1535 506 1461 487 1360 c 1
 197 1360 l 1
762 958 m 1
 677 953 606 918 547 852 c 0
 488 786 456 697 451 582 c 1
 456 478 490 392 551 324 c 0
 612 256 703 218 823 213 c 1
 935 218 1026 239 1096 274 c 0
 1166 309 1203 370 1208 455 c 1
 1208 682 l 1
 1194 763 1151 828 1079 877 c 0
 1007 926 901 953 762 958 c 1
EndSplineSet
Validated: 1
EndChar

StartChar: b
Encoding: 98 98 65
Width: 2490
VWidth: 4194
Flags: HW
HStem: 0 213<1197 1651> 0 106<164 210> 1655 213<1231 1640> 2761 106<287 393>
VStem: 508 393<423 1392 1614 2646> 1933 393<642 1238>
LayerCount: 2
Fore
SplineSet
1475 1655 m 1xbc
 1210 1647 1018 1537 901 1327 c 1
 901 475 l 1
 1016 306 1207 218 1475 213 c 1
 1767 224 1919 464 1933 934 c 1
 1922 1390 1770 1630 1475 1655 c 1xbc
1475 1868 m 1
 2016 1846 2300 1535 2327 934 c 1
 2324 811 2300 683 2255 551 c 0
 2210 419 2123 294 1993 178 c 0
 1863 62 1691 3 1475 0 c 1xbc
 1210 5 1018 58 901 156 c 1
 745 0 l 1
 164 0 l 1
 164 106 l 1x7c
 508 213 l 1
 508 2646 l 1
 393 2761 l 1
 287 2761 l 1
 287 2867 l 1
 901 2867 l 1
 901 1614 l 1
 1013 1772 1205 1857 1475 1868 c 1
EndSplineSet
Validated: 1
EndChar

StartChar: c
Encoding: 99 99 66
Width: 1998
VWidth: 4194
Flags: HW
HStem: 0 213<869 1306> 1655 213<869 1282>
VStem: 164 393<623 1245> 1315 483<1143 1371>
LayerCount: 2
Fore
SplineSet
557 934 m 1
 576 467 743 227 1057 213 c 1
 1278 221 1444 279 1556 385 c 2
 1720 549 l 1
 1835 434 l 1
 1671 270 l 1
 1491 98 1286 8 1057 0 c 1
 822 5 618 78 446 217 c 0
 274 356 180 595 164 934 c 1
 180 1273 274 1512 446 1651 c 0
 618 1790 822 1863 1057 1868 c 1
 1319 1852 1506 1786 1618 1673 c 0
 1730 1560 1790 1437 1798 1303 c 1
 1793 1145 1719 1061 1577 1053 c 1
 1416 1056 1329 1116 1315 1233 c 1
 1320 1342 1368 1415 1458 1450 c 1
 1403 1578 1270 1647 1057 1655 c 1
 743 1641 576 1401 557 934 c 1
EndSplineSet
Validated: 1
EndChar

StartChar: d
Encoding: 100 100 67
Width: 2490
VWidth: 4194
Flags: HW
HStem: 0 213<840 1293> 0 106<2280 2327> 1655 213<851 1260> 2761 106<1368 1475>
VStem: 164 393<642 1238> 1589 393<423 1392 1614 2646>
LayerCount: 2
Fore
SplineSet
1016 1655 m 1xbc
 721 1630 568 1390 557 934 c 1
 571 464 724 224 1016 213 c 1
 1284 218 1474 306 1589 475 c 1
 1589 1327 l 1
 1472 1537 1281 1647 1016 1655 c 1xbc
1016 1868 m 1
 1286 1857 1477 1772 1589 1614 c 1
 1589 2646 l 1
 1475 2761 l 1
 1368 2761 l 1
 1368 2867 l 1
 1982 2867 l 1
 1982 213 l 1xbc
 2327 106 l 1
 2327 0 l 1
 1745 0 l 1x7c
 1589 156 l 1
 1472 58 1281 5 1016 0 c 1
 800 3 628 62 498 178 c 0
 368 294 281 419 236 551 c 0
 191 683 167 811 164 934 c 1
 191 1535 475 1846 1016 1868 c 1
EndSplineSet
Validated: 1
EndChar

StartChar: e
Encoding: 101 101 68
Width: 1998
VWidth: 4194
Flags: HW
HStem: 0 213<855 1295> 1008 205<549 1532> 1827 41G<939 1177>
VStem: 164 369<682 1005>
LayerCount: 2
Fore
SplineSet
164 991 m 1
 180 1291 274 1512 446 1651 c 0
 618 1790 822 1863 1057 1868 c 1
 1297 1846 1483 1773 1614 1647 c 1
 1756 1489 1827 1276 1827 1008 c 1
 532 1008 l 1
 537 776 582 585 664 438 c 0
 746 291 877 216 1057 213 c 0
 1215 208 1381 265 1556 385 c 1
 1720 549 l 1
 1835 434 l 1
 1671 270 l 1
 1491 101 1286 11 1057 0 c 1
 795 16 604 79 487 188 c 0
 370 297 287 429 238 582 c 0
 189 735 164 871 164 991 c 1
549 1212 m 1
 1532 1212 l 1
 1477 1474 1319 1622 1057 1655 c 1
 768 1639 598 1491 549 1212 c 1
EndSplineSet
Validated: 33
EndChar

StartChar: f
Encoding: 102 102 69
Width: 2359
VWidth: 4194
Flags: HW
HStem: 0 106<393 440 1428 1475> 1622 246<164 737 1130 1704> 2826 41G<1264 1636>
VStem: 737 393<213 1622 1868 2417> 1704 492<2141 2401>
LayerCount: 2
Fore
SplineSet
1130 1622 m 1
 1130 213 l 1
 1475 106 l 1
 1475 0 l 1
 393 0 l 1
 393 106 l 1
 737 213 l 1
 737 1622 l 1
 164 1622 l 1
 164 1868 l 1
 737 1868 l 1
 737 2245 l 1
 742 2644 1005 2851 1524 2867 c 1
 1748 2851 1916 2783 2028 2666 c 0
 2140 2549 2195 2419 2195 2277 c 1
 2179 2124 2100 2045 1958 2040 c 1
 1800 2045 1715 2128 1704 2286 c 1
 1709 2384 1758 2442 1851 2458 c 1
 1769 2562 1661 2616 1524 2621 c 1
 1267 2588 1135 2463 1130 2245 c 1
 1130 1868 l 1
 1704 1868 l 1
 1704 1622 l 1
 1130 1622 l 1
EndSplineSet
Validated: 1
EndChar

StartChar: g
Encoding: 103 103 70
Width: 2711
VWidth: 4194
Flags: HW
HStem: -1188 246<991 1707> -33 213<1148 1618> 410 1458<1303 1614>
VStem: 164 446<-698 -306> 467 426<1022 1441> 483 360<273 503> 1958 352<815 1207> 2179 336<-671 -369>
LayerCount: 2
Fore
SplineSet
1303 1868 m 1xe8
 1429 1863 1543 1848 1645 1823 c 0
 1747 1798 1849 1747 1950 1671 c 1
 2073 1548 l 1
 2155 1698 2291 1778 2482 1786 c 1
 2548 1556 l 1
 2401 1548 2302 1461 2253 1294 c 1
 2288 1212 2307 1110 2310 987 c 1
 2291 777 2219 631 2093 549 c 0
 1967 467 1808 421 1614 410 c 1
 1499 413 1392 426 1294 449 c 0
 1196 472 1101 510 1008 565 c 1
 953 549 912 527 885 500 c 0
 858 473 844 438 844 397 c 0xe6
 849 296 898 235 991 213 c 1
 1270 180 l 1
 1488 169 1668 148 1810 115 c 0
 2078 49 2261 -37 2361 -143 c 0
 2461 -249 2512 -379 2515 -532 c 1
 2504 -740 2392 -899 2179 -1010 c 0
 1966 -1121 1686 -1180 1339 -1188 c 1
 992 -1180 713 -1121 500 -1010 c 0
 287 -899 175 -740 164 -532 c 1xf1
 169 -387 213 -255 295 -133 c 0
 377 -11 505 71 680 115 c 1
 614 145 567 185 537 236 c 0
 507 287 488 350 483 426 c 1xe4
 486 519 508 590 549 639 c 0
 590 688 645 721 713 737 c 1
 637 808 578 884 537 963 c 0
 496 1042 472 1147 467 1278 c 1
 478 1475 564 1621 725 1718 c 0
 886 1815 1079 1865 1303 1868 c 1xe8
1171 1606 m 0
 1078 1579 1011 1538 967 1485 c 0
 923 1432 898 1363 893 1278 c 1xea
 896 1161 913 1067 944 997 c 0
 975 927 1013 874 1057 836 c 0
 1142 768 1230 722 1321 702 c 0
 1412 682 1510 669 1614 664 c 1
 1832 669 1947 777 1958 987 c 1
 1953 1099 1924 1202 1872 1298 c 0
 1820 1394 1723 1480 1581 1556 c 1
 1434 1627 1297 1644 1171 1606 c 0
1024 -33 m 1
 882 -49 779 -104 715 -195 c 0
 651 -286 615 -398 610 -532 c 1
 618 -685 689 -790 823 -846 c 0
 957 -902 1129 -934 1339 -942 c 1
 1560 -937 1754 -899 1921 -831 c 0
 2088 -763 2174 -663 2179 -532 c 1xf1
 2176 -447 2149 -374 2097 -313 c 0
 2045 -252 1960 -196 1843 -147 c 0
 1663 -76 1472 -38 1270 -33 c 1
 1024 -33 l 1
EndSplineSet
Validated: 33
EndChar

StartChar: h
Encoding: 104 104 71
Width: 2727
VWidth: 4194
Flags: HW
HStem: 0 106<164 210 2518 2564> 1655 213<1236 1635> 2761 106<287 393>
VStem: 508 393<213 1430 1630 2646> 1827 393<213 1459>
LayerCount: 2
Fore
SplineSet
1458 1868 m 1
 1950 1852 2204 1663 2220 1303 c 1
 2220 213 l 1
 2564 106 l 1
 2564 0 l 1
 1614 0 l 1
 1827 213 l 1
 1827 1303 l 1
 1805 1527 1682 1644 1458 1655 c 1
 1248 1644 1062 1557 901 1393 c 1
 901 213 l 1
 1114 0 l 1
 164 0 l 1
 164 106 l 1
 508 213 l 1
 508 2646 l 1
 393 2761 l 1
 287 2761 l 1
 287 2867 l 1
 901 2867 l 1
 901 1630 l 1
 1032 1783 1218 1863 1458 1868 c 1
EndSplineSet
Validated: 1
EndChar

StartChar: i
Encoding: 105 105 72
Width: 1409
VWidth: 4194
Flags: HW
HStem: 0 106<164 210 1199 1245> 1056 410<511 772> 1827 41G<487 901>
VStem: 437 410<1130 1391> 508 393<213 1356>
LayerCount: 2
Fore
SplineSet
901 1868 m 5
 901 213 l 5
 1245 106 l 5
 1245 0 l 5
 164 0 l 5
 164 106 l 5
 508 213 l 5
 508 1356 l 5
 238 1221 l 5
 205 1266 l 5
 508 1868 l 5
 901 1868 l 5
EndSplineSet
Refer: 13 46 N 1 0 0 1 60 1056 0
Validated: 8388613
EndChar

StartChar: j
Encoding: 106 106 73
Width: 1253
VWidth: 4194
Flags: HW
HStem: -999 221<283 545> 1056 410<583 844> 1827 41G<635 1049>
VStem: -147 475<-508 -246> 509 410<1130 1391> 655 393<-642 1356>
LayerCount: 2
Fore
SplineSet
1049 1868 m 5
 1049 -418 l 5
 1033 -991 1032 -991 434 -999 c 4
 -139 -999 -139 -999 -147 -401 c 4
 -147 -172 -148 -172 90 -156 c 5
 328 -172 328 -172 328 -401 c 5
 320 -516 320 -516 193 -573 c 5
 218 -770 217 -770 434 -778 c 5
 639 -770 639 -770 655 -418 c 5
 655 1356 l 5
 385 1221 l 5
 352 1266 l 5
 655 1868 l 5
 1049 1868 l 5
EndSplineSet
Refer: 13 46 N 1 0 0 1 132 1056 0
Validated: 8388645
EndChar

StartChar: k
Encoding: 107 107 74
Width: 2719
VWidth: 4194
Flags: HW
HStem: 0 106<164 210 2510 2556> 1704 164<2126 2458> 2761 106<279 385>
VStem: 508 393<213 881 1208 2638>
LayerCount: 2
Fore
SplineSet
2126 1704 m 1
 1438 1241 l 1
 2212 213 l 1
 2556 106 l 1
 2556 0 l 1
 1638 0 l 1
 1851 213 l 1
 1192 1077 l 1
 901 881 l 1
 901 213 l 1
 1114 0 l 1
 164 0 l 1
 164 106 l 1
 508 213 l 1
 508 2638 l 1
 385 2761 l 1
 279 2761 l 1
 279 2867 l 1
 901 2867 l 1
 901 1208 l 1
 1708 1749 l 1
 1589 1868 l 1
 2458 1868 l 1
 2458 1704 l 1
 2126 1704 l 1
EndSplineSet
Validated: 1
EndChar

StartChar: l
Encoding: 108 108 75
Width: 1409
VWidth: 4194
Flags: HW
HStem: 0 43G<164 1245> 2761 106<279 385>
VStem: 508 393<213 2638>
LayerCount: 2
Fore
SplineSet
901 2867 m 1
 901 213 l 1
 1245 98 l 1
 1245 0 l 1
 164 0 l 1
 164 98 l 1
 508 213 l 1
 508 2638 l 1
 385 2761 l 1
 279 2761 l 1
 279 2867 l 1
 901 2867 l 1
EndSplineSet
Validated: 1
EndChar

StartChar: m
Encoding: 109 109 76
Width: 4046
VWidth: 4194
Flags: HW
HStem: 0 106<164 210 3837 3883> 1655 213<1236 1639 2556 2954> 1761 102<287 393>
VStem: 508 393<213 1430 1630 1647> 1827 393<213 1384> 3146 393<213 1459>
CounterMasks: 1 1c
LayerCount: 2
Fore
SplineSet
1458 1868 m 1xdc
 1802 1860 2034 1755 2154 1556 c 1
 2310 1753 2518 1857 2777 1868 c 1
 3269 1852 3523 1663 3539 1303 c 1
 3539 213 l 1
 3883 106 l 1
 3883 0 l 1
 2933 0 l 1
 3146 213 l 1
 3146 1303 l 1
 3124 1527 3001 1644 2777 1655 c 1
 2559 1641 2370 1551 2212 1384 c 1
 2220 1303 l 1
 2220 213 l 1
 2433 0 l 1
 1614 0 l 1
 1827 213 l 1
 1827 1303 l 1
 1805 1527 1682 1644 1458 1655 c 1xdc
 1248 1644 1062 1557 901 1393 c 1
 901 213 l 1
 1114 0 l 1
 164 0 l 1
 164 106 l 1
 508 213 l 1
 508 1647 l 1
 393 1761 l 1
 287 1761 l 1
 287 1864 l 1
 901 1864 l 1xbc
 901 1630 l 1
 1032 1783 1218 1863 1458 1868 c 1xdc
EndSplineSet
Validated: 1
EndChar

StartChar: n
Encoding: 110 110 77
Width: 2727
VWidth: 4194
Flags: HW
HStem: 0 106<164 210 2518 2564> 1655 213<1216 1636> 1761 102<287 393>
VStem: 508 393<213 1390 1581 1647> 1827 393<213 1462>
LayerCount: 2
Fore
SplineSet
1458 1868 m 1xd8
 1955 1860 2209 1672 2220 1303 c 1
 2220 213 l 1
 2564 106 l 1
 2564 0 l 1
 1614 0 l 1
 1827 213 l 1
 1827 1303 l 1
 1805 1527 1682 1644 1458 1655 c 1xd8
 1319 1652 1201 1617 1104 1550 c 0
 1007 1483 939 1401 901 1303 c 1
 901 213 l 1
 1114 0 l 1
 164 0 l 1
 164 106 l 1
 508 213 l 1
 508 1647 l 1
 393 1761 l 1
 287 1761 l 1
 287 1864 l 1
 901 1864 l 1xb8
 901 1581 l 1
 947 1666 1017 1733 1108 1784 c 0
 1199 1835 1316 1863 1458 1868 c 1xd8
EndSplineSet
Validated: 1
EndChar

StartChar: o
Encoding: 111 111 78
Width: 2195
VWidth: 4194
Flags: HW
HStem: 0 213<888 1308> 1655 213<888 1308>
VStem: 164 393<615 1253> 1638 393<615 1253>
LayerCount: 2
Fore
SplineSet
1098 1868 m 1
 1710 1857 2021 1546 2032 934 c 1
 2021 322 1710 11 1098 0 c 1
 486 11 175 322 164 934 c 1
 175 1546 486 1857 1098 1868 c 1
1098 1655 m 1
 748 1644 568 1404 557 934 c 1
 568 464 748 224 1098 213 c 1
 1448 224 1627 464 1638 934 c 1
 1627 1404 1448 1644 1098 1655 c 1
EndSplineSet
Validated: 1
EndChar

StartChar: p
Encoding: 112 112 79
Width: 2490
VWidth: 4194
Flags: HW
HStem: -999 106<287 393 1016 1122> 0 213<1231 1640> 1655 213<1197 1651> 1761 102<164 210>
VStem: 508 393<-778 254 475 1445> 1933 393<629 1225>
LayerCount: 2
Fore
SplineSet
1475 213 m 1xec
 1770 238 1922 478 1933 934 c 1
 1919 1404 1767 1644 1475 1655 c 1
 1207 1650 1016 1562 901 1393 c 1
 901 541 l 1
 1018 331 1210 221 1475 213 c 1xec
1475 0 m 1
 1205 11 1013 96 901 254 c 1
 901 -778 l 1
 1016 -893 l 1
 1122 -893 l 1
 1122 -999 l 1
 287 -999 l 1
 287 -893 l 1
 393 -893 l 1
 508 -778 l 1
 508 1655 l 1xec
 164 1761 l 1
 164 1864 l 1
 750 1864 l 1xdc
 901 1712 l 1
 1018 1810 1210 1863 1475 1868 c 1
 1691 1865 1863 1806 1993 1690 c 0
 2123 1574 2210 1449 2255 1317 c 0
 2300 1185 2324 1057 2327 934 c 1
 2300 333 2016 22 1475 0 c 1
EndSplineSet
Validated: 1
EndChar

StartChar: q
Encoding: 113 113 80
Width: 2146
VWidth: 4194
Flags: HW
HStem: -999 106<1368 1475 2097 2204> 0 213<851 1260> 1655 213<840 1293>
VStem: 164 393<629 1225> 1589 393<-778 254 475 1445>
LayerCount: 2
Fore
SplineSet
1016 213 m 1
 1281 221 1472 331 1589 541 c 1
 1589 1393 l 1
 1474 1562 1284 1650 1016 1655 c 1
 724 1644 571 1404 557 934 c 1
 568 478 721 238 1016 213 c 1
1016 0 m 1
 475 22 191 333 164 934 c 1
 167 1057 191 1185 236 1317 c 0
 281 1449 368 1574 498 1690 c 0
 628 1806 800 1865 1016 1868 c 1
 1281 1863 1472 1810 1589 1712 c 1
 1741 1864 l 1
 1982 1864 l 1
 1982 -778 l 1
 2097 -893 l 1
 2204 -893 l 1
 2204 -999 l 1
 1368 -999 l 1
 1368 -893 l 1
 1475 -893 l 1
 1589 -778 l 1
 1589 254 l 1
 1477 96 1286 11 1016 0 c 1
EndSplineSet
Validated: 1
EndChar

StartChar: r
Encoding: 114 114 81
Width: 2252
VWidth: 4194
Flags: HW
HStem: 0 106<287 393 1016 1122> 1761 102<164 210>
VStem: 508 393<221 1459 1626 1655>
LayerCount: 2
Fore
SplineSet
508 1655 m 1
 164 1761 l 1
 164 1864 l 1
 750 1864 l 1
 901 1712 l 1
 901 1626 l 1
 1005 1692 1136 1748 1296 1794 c 0
 1456 1840 1606 1865 1745 1868 c 1
 1996 1857 2125 1775 2130 1622 c 1
 2119 1436 1996 1338 1761 1327 c 1
 1600 1335 1496 1437 1450 1634 c 1
 1390 1634 1306 1616 1200 1581 c 0
 1094 1546 994 1496 901 1430 c 1
 901 221 l 1
 1016 106 l 1
 1122 106 l 1
 1122 0 l 1
 287 0 l 1
 287 106 l 1
 393 106 l 1
 508 221 l 1
 508 1655 l 1
EndSplineSet
Validated: 1
EndChar

StartChar: s
Encoding: 115 115 82
Width: 1835
VWidth: 4194
Flags: HW
HStem: 0 213<575 1124> 1655 213<565 1138>
VStem: 164 279<1367 1562> 164 164<382 614> 1311 164<1376 1542> 1323 348<347 556>
LayerCount: 2
Fore
SplineSet
164 614 m 1xd4
 328 614 l 1
 328 483 l 1
 339 404 394 340 492 291 c 0
 590 242 707 216 844 213 c 1
 1158 232 1318 312 1323 451 c 0xd4
 1320 486 1305 522 1278 557 c 0
 1180 695 909 846 465 1008 c 1
 266 1087 165 1245 164 1483 c 1
 176 1727 403 1856 844 1868 c 1
 1071 1863 1226 1813 1311 1720 c 1
 1384 1868 l 1
 1475 1778 l 1
 1475 1376 l 1
 1311 1376 l 1
 1311 1495 l 1
 1245 1593 1090 1647 844 1655 c 1
 692 1651 587 1630 529 1595 c 0
 471 1560 442 1523 442 1483 c 0xe8
 443 1431 459 1391 489 1364 c 0
 527 1323 657 1267 876 1196 c 0
 1095 1125 1289 1024 1458 893 c 1
 1597 774 1668 627 1671 451 c 1
 1666 293 1603 179 1483 111 c 0
 1363 43 1150 5 844 0 c 1
 626 11 454 60 328 147 c 1
 254 0 l 1
 164 90 l 1
 164 614 l 1xd4
EndSplineSet
Validated: 1
EndChar

StartChar: t
Encoding: 116 116 83
Width: 2007
VWidth: 4194
Flags: HW
HStem: 0 213<1228 1558> 1622 246<164 737 1130 1843> 2343 106<492 547>
VStem: 737 393<300 1622 1868 2204>
LayerCount: 2
Fore
SplineSet
1130 2433 m 1
 1130 1868 l 1
 1843 1868 l 1
 1843 1622 l 1
 1130 1622 l 1
 1130 426 l 1
 1135 295 1219 224 1380 213 c 1
 1541 218 1656 293 1724 438 c 1
 1795 452 1835 412 1843 319 c 1
 1750 117 1596 11 1380 0 c 1
 965 11 751 153 737 426 c 1
 737 1622 l 1
 164 1622 l 1
 164 1868 l 1
 737 1868 l 1
 737 2204 l 1
 598 2343 l 1
 492 2343 l 1
 492 2449 l 1
 987 2576 l 1
 1130 2433 l 1
EndSplineSet
Validated: 33
EndChar

StartChar: u
Encoding: 117 117 84
Width: 2482
VWidth: 4194
Flags: HW
HStem: 0 213<970 1369> 0 106<2212 2318> 1761 106<164 279 2204 2318>
VStem: 385 393<409 1655> 1704 393<221 238 438 1655>
LayerCount: 2
Fore
SplineSet
1147 0 m 1xb8
 655 16 401 205 385 565 c 1
 385 1655 l 1
 279 1761 l 1
 164 1761 l 1
 164 1868 l 1
 991 1868 l 1
 778 1655 l 1
 778 565 l 1
 800 341 923 224 1147 213 c 1xb8
 1357 224 1543 311 1704 475 c 1
 1704 1655 l 1
 1491 1868 l 1
 2318 1868 l 1
 2318 1761 l 1
 2204 1761 l 1
 2097 1655 l 1
 2097 221 l 1
 2212 106 l 1
 2318 106 l 1
 2318 0 l 1
 1704 0 l 1x78
 1704 238 l 1
 1573 85 1387 5 1147 0 c 1xb8
EndSplineSet
Validated: 1
EndChar

StartChar: v
Encoding: 118 118 85
Width: 2482
VWidth: 4194
Flags: HW
HStem: 0 43G<1212 1270> 1761 106<164 299 2183 2318>
LayerCount: 2
Fore
SplineSet
1249 0 m 1
 1233 0 l 1
 406 1655 l 1
 299 1761 l 1
 164 1761 l 1
 164 1868 l 1
 983 1868 l 1
 770 1655 l 1
 1241 348 l 1
 1712 1655 l 1
 1499 1868 l 1
 2318 1868 l 1
 2318 1761 l 1
 2183 1761 l 1
 2077 1655 l 1
 1249 0 l 1
EndSplineSet
Validated: 1
EndChar

StartChar: w
Encoding: 119 119 86
Width: 3809
VWidth: 4194
Flags: HW
HStem: 0 43G<1212 1270 2539 2597> 1761 106<164 299 3510 3645>
LayerCount: 2
Fore
SplineSet
1233 0 m 1
 406 1655 l 1
 299 1761 l 1
 164 1761 l 1
 164 1868 l 1
 983 1868 l 1
 770 1655 l 1
 1241 348 l 1
 1712 1655 l 1
 1499 1868 l 1
 2310 1868 l 1
 2097 1655 l 1
 2568 348 l 1
 3039 1655 l 1
 2826 1868 l 1
 3645 1868 l 1
 3645 1761 l 1
 3510 1761 l 1
 3404 1655 l 1
 2576 0 l 1
 2560 0 l 1
 1905 1307 l 1
 1249 0 l 1
 1233 0 l 1
EndSplineSet
Validated: 1
EndChar

StartChar: x
Encoding: 120 120 87
Width: 2473
VWidth: 4194
Flags: HW
HStem: 0 106<164 270 2204 2310> 1761 106<164 270 2204 2310>
LayerCount: 2
Fore
SplineSet
1032 934 m 1
 385 1647 l 1
 270 1761 l 1
 164 1761 l 1
 164 1868 l 1
 983 1868 l 1
 770 1655 l 1
 1237 1139 l 1
 1704 1655 l 1
 1491 1868 l 1
 2310 1868 l 1
 2310 1761 l 1
 2204 1761 l 1
 2089 1647 l 1
 1442 934 l 1
 2089 221 l 1
 2204 106 l 1
 2310 106 l 1
 2310 0 l 1
 1491 0 l 1
 1704 213 l 1
 1237 729 l 1
 770 213 l 1
 983 0 l 1
 164 0 l 1
 164 106 l 1
 270 106 l 1
 385 221 l 1
 1032 934 l 1
EndSplineSet
Validated: 1
EndChar

StartChar: y
Encoding: 121 121 88
Width: 2834
VWidth: 4194
Flags: HW
HStem: -999 213<632 962> 1761 106<164 210 2624 2671>
VStem: 262 344<-752 -467>
LayerCount: 2
Fore
SplineSet
164 1868 m 1
 1081 1868 l 1
 868 1655 l 1
 1524 344 l 1
 2081 1655 l 1
 1868 1868 l 1
 2671 1868 l 1
 2671 1761 l 1
 2327 1655 l 1
 1384 -557 l 2
 1258 -841 1057 -988 778 -999 c 1
 445 -994 273 -860 262 -598 c 1
 267 -475 325 -409 434 -401 c 1
 540 -415 598 -481 606 -598 c 1
 606 -721 l 1
 650 -765 707 -786 778 -786 c 0
 942 -781 1063 -704 1139 -557 c 1
 1360 -41 l 1
 508 1655 l 1
 164 1761 l 1
 164 1868 l 1
EndSplineSet
Validated: 1
EndChar

StartChar: z
Encoding: 122 122 89
Width: 1908
VWidth: 4194
Flags: HW
HStem: 0 213<745 1540> 1655 213<385 1163>
VStem: 164 106<1434 1540> 1638 106<328 434>
LayerCount: 2
Fore
SplineSet
164 1434 m 1
 164 1868 l 1
 1745 1868 l 1
 745 213 l 1
 1540 213 l 1
 1638 328 l 1
 1638 434 l 1
 1745 434 l 1
 1745 0 l 1
 164 0 l 1
 1163 1655 l 1
 385 1655 l 1
 270 1540 l 1
 270 1434 l 1
 164 1434 l 1
EndSplineSet
Validated: 1
EndChar

StartChar: braceleft
Encoding: 123 123 90
Width: 1384
VWidth: 4194
Flags: HW
HStem: -352 287<970 1384> 2933 287<970 1384>
VStem: 524 254<158 563 2304 2709>
LayerCount: 2
Fore
SplineSet
1384 3219 m 1
 1384 2933 l 1
 1163 2933 l 2
 934 2933 805 2802 778 2540 c 1
 773 2371 838 2216 975 2077 c 0
 1112 1938 1171 1824 1155 1737 c 1
 1150 1671 1122 1617 1073 1573 c 2
 901 1434 l 1
 1073 1294 l 2
 1122 1250 1150 1196 1155 1130 c 1
 1171 1043 1112 930 975 791 c 0
 838 652 773 497 778 328 c 1
 805 66 934 -66 1163 -66 c 2
 1384 -66 l 1
 1384 -352 l 1
 1122 -352 l 1
 772 -286 573 -60 524 328 c 1
 524 497 569 641 659 758 c 0
 749 875 789 999 778 1130 c 1
 712 1228 609 1299 467 1343 c 1
 287 1434 l 1
 467 1524 l 1
 609 1568 712 1639 778 1737 c 1
 789 1868 749 1992 659 2109 c 0
 569 2226 524 2371 524 2540 c 1
 573 2928 772 3153 1122 3219 c 1
 1384 3219 l 1
EndSplineSet
Validated: 33
EndChar

StartChar: bar
Encoding: 124 124 91
Width: 950
VWidth: 4194
Flags: HW
HStem: 0 43G<352 598> 2826 41G<352 598>
VStem: 352 246<0 2867>
LayerCount: 2
Fore
SplineSet
352 2867 m 1
 598 2867 l 1
 598 0 l 1
 352 0 l 1
 352 2867 l 1
EndSplineSet
Validated: 1
EndChar

StartChar: braceright
Encoding: 125 125 92
Width: 1384
VWidth: 4194
Flags: HW
HStem: -352 287<0 414> 2933 287<0 414>
VStem: 606 254<158 563 2304 2709>
LayerCount: 2
Fore
SplineSet
0 -352 m 1
 0 -66 l 1
 221 -66 l 2
 450 -66 579 66 606 328 c 1
 611 497 547 652 410 791 c 0
 273 930 213 1043 229 1130 c 1
 234 1196 262 1250 311 1294 c 2
 483 1434 l 1
 311 1573 l 2
 262 1617 234 1671 229 1737 c 1
 213 1824 273 1938 410 2077 c 0
 547 2216 611 2371 606 2540 c 1
 579 2802 450 2933 221 2933 c 2
 0 2933 l 1
 0 3219 l 1
 262 3219 l 1
 612 3153 811 2928 860 2540 c 1
 860 2371 815 2226 725 2109 c 0
 635 1992 595 1868 606 1737 c 1
 672 1639 776 1568 918 1524 c 1
 1098 1434 l 1
 918 1343 l 1
 776 1299 672 1228 606 1130 c 1
 595 999 635 875 725 758 c 0
 815 641 860 497 860 328 c 1
 811 -60 612 -286 262 -352 c 1
 0 -352 l 1
EndSplineSet
Validated: 33
EndChar

StartChar: asciitilde
Encoding: 126 126 93
Width: 1851
VWidth: 4194
Flags: HW
HStem: 2146 295<1019 1445> 2327 295<406 833>
LayerCount: 2
Fore
SplineSet
1688 2671 m 1x80
 1677 2327 1529 2151 1245 2146 c 0x80
 1136 2146 1030 2176 926 2236 c 0
 822 2296 715 2327 606 2327 c 0
 431 2327 303 2250 221 2097 c 1
 164 2097 l 1
 175 2441 322 2616 606 2621 c 0x40
 715 2621 822 2591 926 2531 c 0
 1030 2471 1136 2441 1245 2441 c 0
 1420 2441 1548 2518 1630 2671 c 1
 1688 2671 l 1x80
EndSplineSet
Validated: 1
EndChar

StartChar: exclamdown
Encoding: 161 161 95
Width: 2457
VWidth: 4194
Flags: HW
HStem: 0 106<164 210> 0 213<901 1982> 1327 213<901 1761> 2654 213<901 1982> 2761 106<164 210>
VStem: 508 393<213 1327 1540 2654>
LayerCount: 2
Fore
SplineSet
1401 3498 m 5
 713 3154 l 5
 696 3170 l 5
 1401 3875 l 5
 2105 3170 l 5
 2089 3154 l 5
 1401 3498 l 5
EndSplineSet
Refer: 36 69 N 1 0 0 1 0 0 0
Validated: 1
EndChar

StartChar: cent
Encoding: 162 162 96
Width: 1990
VWidth: 4194
Flags: HW
HStem: 0 213<896 1366> 1649 205<1300 1411> 1663 229<851 1024>
VStem: 164 369<683 1266> 1405 332<1200 1447>
LayerCount: 2
Fore
SplineSet
1401 2789 m 1xb8
 1614 2789 l 1
 1300 1853 l 1
 1482 1805 1603 1723 1663 1606 c 0
 1709 1527 1734 1431 1737 1319 c 1
 1726 1207 1670 1150 1569 1147 c 1
 1463 1155 1408 1213 1405 1319 c 0
 1408 1423 1461 1486 1565 1511 c 1
 1482 1586 1371 1633 1233 1649 c 1xd8
 786 317 l 1
 865 258 971 224 1102 213 c 1
 1214 216 1316 231 1407 258 c 0
 1498 285 1625 360 1786 483 c 1
 1813 494 1826 484 1823 451 c 0
 1798 350 1721 252 1591 156 c 0
 1461 60 1299 8 1102 0 c 1
 942 5 811 32 707 80 c 1
 418 -782 l 1
 205 -782 l 1
 528 188 l 1
 292 376 171 650 164 1008 c 1
 178 1292 268 1511 436 1665 c 0
 604 1819 800 1895 1024 1892 c 0
 1059 1891 1085 1889 1100 1886 c 1
 1401 2789 l 1xb8
1024 1663 m 1xb8
 896 1658 786 1605 696 1505 c 0
 606 1405 551 1240 532 1008 c 1
 537 795 573 628 637 506 c 1
 1024 1663 l 1xb8
EndSplineSet
Validated: 33
EndChar

StartChar: sterling
Encoding: 163 163 97
Width: 3399
VWidth: 4194
Flags: HW
HStem: 1606 246<467 1122 1499 2154>
VStem: 1122 377<1114 1606 1851 2352> 2925 311<317 623>
LayerCount: 2
Fore
SplineSet
582 770 m 1
 516 664 516 555 582 446 c 1
 620 400 673 374 743 369 c 0
 895 347 1000 497 1057 819 c 1
 882 928 724 912 582 770 c 1
1122 2179 m 1
 1155 2638 1358 2889 1729 2933 c 1
 2079 2966 2318 2845 2449 2572 c 1
 2509 2408 2486 2277 2380 2179 c 1
 2290 2179 l 1
 2304 2438 2182 2580 1925 2605 c 1
 1622 2600 1480 2398 1499 1999 c 1
 1499 1851 l 1
 2154 1851 l 1
 2154 1606 l 1
 1499 1606 l 1
 1499 885 l 1
 1991 524 l 1
 2253 295 2455 186 2597 197 c 1
 2840 172 2950 314 2925 623 c 1
 3236 623 l 1
 3236 410 l 1
 3203 115 3034 -54 2728 -98 c 0
 2444 -142 2144 -22 1827 262 c 1
 1417 557 l 1
 1327 164 1117 -22 788 0 c 1
 563 3 388 90 262 262 c 0
 196 358 164 476 164 618 c 0
 164 760 218 892 324 1012 c 1
 562 1211 827 1245 1122 1114 c 1
 1122 1606 l 1
 467 1606 l 1
 467 1851 l 1
 1122 1851 l 1
 1122 2179 l 1
EndSplineSet
Validated: 33
EndChar

StartChar: currency
Encoding: 164 164 98
Width: 2457
VWidth: 4194
Flags: HW
HStem: 0 106<164 210> 0 213<901 1982> 1327 213<901 1761> 2654 213<901 1982> 2761 106<164 210>
VStem: 508 393<213 1327 1540 2654> 1270 328<-680 16>
LayerCount: 2
Fore
SplineSet
1270 16 m 5
 1597 16 l 5
 1597 -680 l 5
 1270 -680 l 5
 1270 16 l 5
EndSplineSet
Refer: 132 198 N 1 0 0 1 0 0 0
Validated: 5
EndChar

StartChar: yen
Encoding: 165 165 99
Width: 2531
VWidth: 4194
Flags: HW
HStem: 0 106<807 853 1776 1823> 795 287<291 1151 1479 2339> 1368 287<291 1151 1479 2339> 2761 106<164 210 2419 2466>
VStem: 1151 328<213 795 1081 1368>
LayerCount: 2
Fore
SplineSet
164 2867 m 1
 1069 2867 l 1
 856 2654 l 1
 1315 1942 l 1
 1774 2654 l 1
 1561 2867 l 1
 2466 2867 l 1
 2466 2761 l 1
 2122 2654 l 1
 1479 1655 l 1
 2339 1655 l 1
 2339 1368 l 1
 1479 1368 l 1
 1479 1081 l 1
 2339 1081 l 1
 2339 795 l 1
 1479 795 l 1
 1479 213 l 1
 1823 106 l 1
 1823 0 l 1
 807 0 l 1
 807 106 l 1
 1151 213 l 1
 1151 795 l 1
 291 795 l 1
 291 1081 l 1
 1151 1081 l 1
 1151 1368 l 1
 291 1368 l 1
 291 1655 l 1
 1151 1655 l 1
 508 2654 l 1
 164 2761 l 1
 164 2867 l 1
EndSplineSet
Validated: 1
EndChar

StartChar: brokenbar
Encoding: 166 166 100
Width: 2457
VWidth: 4194
Flags: HW
HStem: 0 106<164 210> 0 213<901 1982> 1327 213<901 1761> 2654 213<901 1982> 2761 106<164 210>
VStem: 508 393<213 1327 1540 2654> 1270 328<-680 16>
LayerCount: 2
Fore
SplineSet
1270 16 m 5
 1597 16 l 5
 1597 -680 l 5
 1270 -680 l 5
 1270 16 l 5
EndSplineSet
Refer: 131 197 N 1 0 0 1 0 0 0
Validated: 5
EndChar

StartChar: section
Encoding: 167 167 101
Width: 2457
VWidth: 4194
Flags: HW
HStem: 0 106<164 210> 0 213<901 1982> 1327 213<901 1761> 2654 213<901 1982> 2761 106<164 210>
VStem: 508 393<213 1327 1540 2654> 1270 328<-680 16>
LayerCount: 2
Fore
SplineSet
1270 16 m 5
 1597 16 l 5
 1597 -680 l 5
 1270 -680 l 5
 1270 16 l 5
EndSplineSet
Refer: 95 161 N 1 0 0 1 0 0 0
Validated: 5
EndChar

StartChar: copyright
Encoding: 169 169 103
Width: 3432
VWidth: 4194
Flags: HW
HStem: 492 213<1458 1945> 2146 213<1507 1943>
VStem: 836 311<1094 1740> 2228 100<1769 1874>
LayerCount: 2
Fore
SplineSet
1720 2359 m 5
 1970 2351 1971 2351 2118 2216 c 5
 2236 2335 l 5
 2329 2058 l 5
 2329 1769 l 5
 2228 1769 l 5
 2122 2129 2121 2130 1720 2146 c 5
 1155 2121 1155 2121 1147 1425 c 5
 1155 712 1155 713 1671 705 c 5
 2138 713 2138 713 2294 1057 c 5
 2386 981 l 5
 2245 508 2244 508 1671 492 c 5
 860 517 861 516 836 1425 c 5
 844 2326 843 2326 1720 2359 c 5
1587 2968 m 5
 1831 2978 1831 2978 2017 2945 c 5
 3104 2666 3105 2666 3269 1554 c 5
 3279 1310 3279 1310 3244 1124 c 5
 2968 37 2967 37 1853 -127 c 5
 1611 -137 1611 -137 1425 -102 c 5
 335 174 336 174 174 1288 c 5
 164 1530 164 1530 197 1716 c 5
 476 2806 475 2806 1587 2968 c 5
1839 2728 m 5
 1276 2771 1276 2771 836 2388 c 5
 500 2064 500 2064 418 1542 c 5
 371 975 371 975 754 535 c 5
 1078 199 1077 199 1599 117 c 5
 2166 70 2167 70 2607 453 c 5
 2943 779 2943 778 3025 1298 c 5
 3072 1865 3072 1866 2689 2306 c 5
 2363 2642 2363 2642 1839 2728 c 5
EndSplineSet
Validated: 33
EndChar

StartChar: guillemotleft
Encoding: 171 171 105
Width: 3833
VWidth: 4194
Flags: HW
HStem: 0 106<164 210 1199 1245 2589 2635 3624 3670> 2761 106<164 210 3624 3670>
VStem: 508 393<213 2654> 2933 393<213 2654>
LayerCount: 2
Fore
SplineSet
2486 3654 m 5
 1913 3080 l 5
 1835 3076 1835 3076 1839 3154 c 5
 2191 3858 l 5
 2273 3997 2274 3998 2454 3924 c 5
 2601 3818 2601 3818 2486 3654 c 5
EndSplineSet
Refer: 44 77 N 1 0 0 1 0 0 0
Validated: 33
EndChar

StartChar: logicalnot
Encoding: 172 172 106
Width: 2916
VWidth: 4194
Flags: HW
HStem: 0 213<1189 1728> 2654 213<1189 1728>
VStem: 164 393<1024 1843> 2359 393<1024 1843>
LayerCount: 2
Fore
SplineSet
1458 3531 m 5
 2146 3875 l 5
 2163 3858 l 5
 1458 3154 l 5
 754 3858 l 5
 770 3875 l 5
 1458 3531 l 5
EndSplineSet
Refer: 46 79 N 1 0 0 1 0 0 0
Validated: 1
EndChar

StartChar: uni00AD
Encoding: 173 173 107
Width: 2916
VWidth: 4194
Flags: HW
HStem: 0 213<1189 1728> 2654 213<1189 1728>
VStem: 164 393<1024 1843> 2359 393<1024 1843>
LayerCount: 2
Fore
SplineSet
1540 3195 m 5
 917 3588 917 3588 606 3162 c 5
 639 3490 639 3490 901 3629 c 4
 1163 3768 1164 3769 1606 3531 c 4
 2048 3293 2048 3293 2294 3686 c 5
 2228 2981 2228 2982 1540 3195 c 5
EndSplineSet
Refer: 46 79 N 1 0 0 1 0 0 0
Validated: 33
EndChar

StartChar: registered
Encoding: 174 174 108
Width: 3432
VWidth: 4194
Flags: HW
HStem: 1376 205<1475 1720> 2154 213<1475 1895>
VStem: 1147 328<713 1376 1581 2154> 2015 328<1724 2045>
LayerCount: 2
Fore
SplineSet
1475 2154 m 5
 1475 1581 l 5
 1753 1581 l 5
 1982 1614 1982 1614 2015 1868 c 5
 2015 2138 2015 2138 1753 2154 c 5
 1475 2154 l 5
1475 1376 m 5
 1475 713 l 5
 1737 606 l 5
 1737 500 l 5
 885 500 l 5
 885 606 l 5
 1147 713 l 5
 1147 2154 l 5
 885 2261 l 5
 885 2367 l 5
 1761 2367 l 5
 2330 2347 2331 2347 2343 1868 c 5
 2310 1573 2310 1573 2048 1458 c 5
 2425 713 l 5
 2597 606 l 5
 2597 500 l 5
 1999 500 l 5
 2105 606 l 5
 1720 1376 l 5
 1475 1376 l 5
1587 2968 m 5
 1831 2978 1831 2978 2017 2945 c 5
 3104 2666 3105 2666 3269 1554 c 5
 3279 1310 3279 1310 3244 1124 c 5
 2968 37 2967 37 1853 -127 c 5
 1611 -137 1611 -137 1425 -102 c 5
 335 174 336 174 174 1288 c 5
 164 1530 164 1530 197 1716 c 5
 476 2806 475 2806 1587 2968 c 5
1839 2728 m 5
 1276 2771 1276 2771 836 2388 c 5
 500 2064 500 2064 418 1542 c 5
 371 975 371 975 754 535 c 5
 1078 199 1077 199 1599 117 c 5
 2166 70 2167 70 2607 453 c 5
 2943 779 2943 778 3025 1298 c 5
 3072 1865 3072 1866 2689 2306 c 5
 2363 2642 2363 2642 1839 2728 c 5
EndSplineSet
Validated: 33
EndChar

StartChar: macron
Encoding: 175 175 109
Width: 2916
VWidth: 4194
Flags: HW
HStem: 0 213<1189 1728> 2654 213<1189 1728>
VStem: 164 393<1024 1843> 2359 393<1024 1843>
LayerCount: 2
Fore
SplineSet
1458 3498 m 5
 770 3154 l 5
 754 3170 l 5
 1458 3875 l 5
 2163 3170 l 5
 2146 3154 l 5
 1458 3498 l 5
EndSplineSet
Refer: 46 79 N 1 0 0 1 0 0 0
Validated: 1
EndChar

StartChar: degree
Encoding: 176 176 110
Width: 2916
VWidth: 4194
Flags: HW
HStem: 0 213<1189 1728> 2654 213<1189 1728>
VStem: 164 393<1024 1843> 1294 328<-680 16> 2359 393<1024 1843>
CounterMasks: 1 38
LayerCount: 2
Fore
SplineSet
1294 16 m 5
 1622 16 l 5
 1622 -680 l 5
 1294 -680 l 5
 1294 16 l 5
EndSplineSet
Refer: 106 172 N 1 0 0 1 0 0 0
Validated: 5
EndChar

StartChar: plusminus
Encoding: 177 177 111
Width: 2916
VWidth: 4194
Flags: HW
HStem: 0 213<1189 1728> 2654 213<1189 1728>
VStem: 164 393<1024 1843> 1294 328<-680 16> 2359 393<1024 1843>
CounterMasks: 1 38
LayerCount: 2
Fore
SplineSet
1294 16 m 5
 1622 16 l 5
 1622 -680 l 5
 1294 -680 l 5
 1294 16 l 5
EndSplineSet
Refer: 107 173 N 1 0 0 1 0 0 0
Validated: 5
EndChar

StartChar: uni00B2
Encoding: 178 178 112
Width: 2916
VWidth: 4194
Flags: HW
HStem: 0 213<1189 1728> 2654 213<1189 1728>
VStem: 164 393<1024 1843> 1294 328<-680 16> 2359 393<1024 1843>
CounterMasks: 1 38
LayerCount: 2
Fore
SplineSet
1294 16 m 5
 1622 16 l 5
 1622 -680 l 5
 1294 -680 l 5
 1294 16 l 5
EndSplineSet
Refer: 109 175 N 1 0 0 1 0 0 0
Validated: 5
EndChar

StartChar: uni00B3
Encoding: 179 179 113
Width: 1998
VWidth: 4194
Flags: HW
HStem: 0 213<855 1295> 1008 205<549 1532> 1827 41G<939 1177>
VStem: 164 369<682 1005>
LayerCount: 2
Fore
SplineSet
1032 2441 m 5
 344 2097 l 5
 328 2114 l 5
 1032 2818 l 5
 1737 2114 l 5
 1720 2097 l 5
 1032 2441 l 5
EndSplineSet
Refer: 68 101 N 1 0 0 1 0 0 0
Validated: 1
EndChar

StartChar: acute
Encoding: 180 180 114
Width: 1998
VWidth: 4194
Flags: HW
HStem: 0 213<855 1295> 1008 205<549 1532> 1827 41G<939 1177>
VStem: 164 369<682 1005> 909 328<-623 74>
LayerCount: 2
Fore
SplineSet
909 74 m 5
 1237 74 l 5
 1237 -623 l 5
 909 -623 l 5
 909 74 l 5
EndSplineSet
Refer: 164 230 N 1 0 0 1 0 0 0
Validated: 5
EndChar

StartChar: mu
Encoding: 181 181 115
Width: 1998
VWidth: 4194
Flags: HW
HStem: 0 213<855 1295> 1008 205<549 1532> 1827 41G<939 1177> 2146 295<1063 1489> 2327 295<450 877>
VStem: 164 369<682 1005> 909 328<-614 82>
LayerCount: 2
Fore
SplineSet
909 82 m 5
 1237 82 l 5
 1237 -614 l 5
 909 -614 l 5
 909 82 l 5
EndSplineSet
Refer: 163 229 N 1 0 0 1 0 0 0
Validated: 5
EndChar

StartChar: paragraph
Encoding: 182 182 116
Width: 1998
VWidth: 4194
Flags: HW
HStem: 0 213<855 1295> 1008 205<549 1532> 1827 41G<939 1177>
VStem: 164 369<682 1005> 909 328<-614 82>
LayerCount: 2
Fore
SplineSet
909 82 m 5
 1237 82 l 5
 1237 -614 l 5
 909 -614 l 5
 909 82 l 5
EndSplineSet
Refer: 113 179 N 1 0 0 1 0 0 0
Validated: 5
EndChar

StartChar: periodcentered
Encoding: 183 183 117
Width: 1409
VWidth: 4194
Flags: HW
HStem: 0 106<164 210 1199 1245> 1827 41G<487 901> 2146 295<868 1261> 2327 295<302 696>
VStem: 508 393<213 1356>
LayerCount: 2
Fore
SplineSet
901 1868 m 5
 901 213 l 5
 1245 106 l 5
 1245 0 l 5
 164 0 l 5
 164 106 l 5
 508 213 l 5
 508 1356 l 5
 238 1221 l 5
 205 1266 l 5
 508 1868 l 5
 901 1868 l 5
EndSplineSet
Refer: 93 126 N 0.92334 0 0 1 -73 0 0
Validated: 524289
EndChar

StartChar: uni00B9
Encoding: 185 185 119
Width: 4046
VWidth: 4194
Flags: HW
HStem: 0 106<164 210 3837 3883> 1655 213<1236 1639 2556 2954> 1761 102<287 393>
VStem: 508 393<213 1430 1630 1647> 1827 393<213 1384> 3146 393<213 1459>
CounterMasks: 1 1c
LayerCount: 2
Fore
SplineSet
2781 2671 m 5
 2208 2097 l 5
 2130 2093 2130 2093 2134 2171 c 5
 2486 2875 l 5
 2568 3014 2568 3015 2748 2941 c 5
 2895 2835 2896 2835 2781 2671 c 5
EndSplineSet
Refer: 76 109 N 1 0 0 1 0 0 0
Validated: 33
EndChar

StartChar: ordmasculine
Encoding: 186 186 120
Width: 2195
VWidth: 4194
Flags: HW
HStem: 0 213<888 1308> 1655 213<888 1308>
VStem: 164 393<615 1253> 1638 393<615 1253>
LayerCount: 2
Fore
SplineSet
1098 2474 m 5
 1786 2818 l 5
 1802 2802 l 5
 1098 2097 l 5
 393 2802 l 5
 410 2818 l 5
 1098 2474 l 5
EndSplineSet
Refer: 78 111 N 1 0 0 1 0 0 0
Validated: 1
EndChar

StartChar: onequarter
Encoding: 188 188 122
Width: 2195
VWidth: 4194
Flags: HW
HStem: 0 213<888 1308> 1655 213<888 1308>
VStem: 164 393<615 1253> 1638 393<615 1253>
LayerCount: 2
Fore
SplineSet
1098 2441 m 5
 410 2097 l 5
 393 2114 l 5
 1098 2818 l 5
 1802 2114 l 5
 1786 2097 l 5
 1098 2441 l 5
EndSplineSet
Refer: 78 111 N 1 0 0 1 0 0 0
Validated: 1
EndChar

StartChar: onehalf
Encoding: 189 189 123
Width: 2195
VWidth: 4194
Flags: HW
HStem: 0 213<888 1308> 1655 213<888 1308>
VStem: 164 393<615 1253> 934 328<-614 82> 1638 393<615 1253>
CounterMasks: 1 38
LayerCount: 2
Fore
SplineSet
934 82 m 5
 1262 82 l 5
 1262 -614 l 5
 934 -614 l 5
 934 82 l 5
EndSplineSet
Refer: 120 186 N 1 0 0 1 0 0 0
Validated: 5
EndChar

StartChar: threequarters
Encoding: 190 190 124
Width: 2195
VWidth: 4194
Flags: HW
HStem: 0 213<888 1308> 1655 213<888 1308> 2146 295<1103 1529> 2327 295<490 917>
VStem: 164 393<615 1253> 934 328<-614 82> 1638 393<615 1253>
CounterMasks: 1 0e
LayerCount: 2
Fore
SplineSet
934 82 m 5
 1262 82 l 5
 1262 -614 l 5
 934 -614 l 5
 934 82 l 5
EndSplineSet
Refer: 121 187 N 1 0 0 1 0 0 0
Validated: 5
EndChar

StartChar: questiondown
Encoding: 191 191 125
Width: 2195
VWidth: 4194
Flags: HW
HStem: 0 213<888 1308> 1655 213<888 1308>
VStem: 164 393<615 1253> 934 328<-614 82> 1638 393<615 1253>
CounterMasks: 1 38
LayerCount: 2
Fore
SplineSet
934 82 m 5
 1262 82 l 5
 1262 -614 l 5
 934 -614 l 5
 934 82 l 5
EndSplineSet
Refer: 122 188 N 1 0 0 1 0 0 0
Validated: 5
EndChar

StartChar: Aacute
Encoding: 193 193 127
Width: 3186
VWidth: 4194
Flags: HW
HStem: 0 106<164 210 2977 3023> 827 262<1098 1909> 2826 41G<1524 1558>
LayerCount: 2
Fore
SplineSet
2167 3654 m 5
 1593 3080 l 5
 1515 3076 1516 3076 1520 3154 c 5
 1872 3858 l 5
 1954 3997 1954 3998 2134 3924 c 5
 2281 3818 2282 3818 2167 3654 c 5
EndSplineSet
Refer: 32 65 N 1 0 0 1 0 0 0
Validated: 33
EndChar

StartChar: Acircumflex
Encoding: 194 194 128
Width: 3186
VWidth: 4194
Flags: HW
HStem: 0 106<164 210 2977 3023> 827 262<1098 1909> 2826 41G<1524 1558>
LayerCount: 2
Fore
SplineSet
1540 3498 m 5
 852 3154 l 5
 836 3170 l 5
 1540 3875 l 5
 2245 3170 l 5
 2228 3154 l 5
 1540 3498 l 5
EndSplineSet
Refer: 32 65 N 1 0 0 1 0 0 0
Validated: 1
EndChar

StartChar: Atilde
Encoding: 195 195 129
Width: 3194
VWidth: 4194
Flags: HW
HStem: 0 106<164 210 2977 3023> 827 262<1098 1909> 2826 41G<1524 1558>
LayerCount: 2
Fore
SplineSet
1630 3195 m 5
 1007 3588 1007 3588 696 3162 c 5
 729 3490 729 3490 991 3629 c 4
 1253 3768 1254 3769 1696 3531 c 4
 2138 3293 2138 3293 2384 3686 c 5
 2318 2981 2318 2982 1630 3195 c 5
EndSplineSet
Refer: 32 65 N 1 0 0 1 0 0 0
Validated: 33
EndChar

StartChar: Adieresis
Encoding: 196 196 130
Width: 3186
VWidth: 4194
Flags: HW
HStem: 0 106<164 210 2977 3023> 827 262<1098 1909> 2826 41G<1524 1558>
LayerCount: 2
Fore
SplineSet
1540 3531 m 5
 2228 3875 l 5
 2245 3858 l 5
 1540 3154 l 5
 836 3858 l 5
 852 3875 l 5
 1540 3531 l 5
EndSplineSet
Refer: 32 65 N 1 0 0 1 0 0 0
Validated: 1
EndChar

StartChar: Aring
Encoding: 197 197 131
Width: 2457
VWidth: 4194
Flags: HW
HStem: 0 106<164 210> 0 213<901 1982> 1327 213<901 1761> 2654 213<901 1982> 2761 106<164 210>
VStem: 508 393<213 1327 1540 2654>
LayerCount: 2
Fore
SplineSet
1442 3195 m 5
 819 3588 819 3588 508 3162 c 5
 541 3490 541 3490 803 3629 c 4
 1065 3768 1065 3769 1507 3531 c 4
 1949 3293 1949 3293 2195 3686 c 5
 2129 2981 2130 2982 1442 3195 c 5
EndSplineSet
Refer: 36 69 N 1 0 0 1 0 0 0
Validated: 33
EndChar

StartChar: AE
Encoding: 198 198 132
Width: 2457
VWidth: 4194
Flags: HW
HStem: 0 106<164 210> 0 213<901 1982> 1327 213<901 1761> 2654 213<901 1982> 2761 106<164 210>
VStem: 508 393<213 1327 1540 2654>
LayerCount: 2
Fore
SplineSet
1360 3531 m 5
 2048 3875 l 5
 2064 3858 l 5
 1360 3154 l 5
 655 3858 l 5
 672 3875 l 5
 1360 3531 l 5
EndSplineSet
Refer: 36 69 N 1 0 0 1 0 0 0
Validated: 1
EndChar

StartChar: Ccedilla
Encoding: 199 199 133
Width: 2457
VWidth: 4194
Flags: HW
HStem: 0 106<164 210> 0 213<901 1982> 1327 213<901 1761> 2654 213<901 1982> 2761 106<164 210>
VStem: 508 393<213 1327 1540 2654> 1270 328<-680 16>
LayerCount: 2
Fore
SplineSet
1270 16 m 5
 1597 16 l 5
 1597 -680 l 5
 1270 -680 l 5
 1270 16 l 5
EndSplineSet
Refer: 36 69 N 1 0 0 1 0 0 0
Validated: 5
EndChar

StartChar: Eacute
Encoding: 201 201 135
Width: 2457
VWidth: 4194
Flags: HW
HStem: 0 106<164 210> 0 213<901 1982> 1327 213<901 1761> 2654 213<901 1982> 2761 106<164 210>
VStem: 508 393<213 1327 1540 2654>
LayerCount: 2
Fore
SplineSet
1921 3654 m 5
 1348 3080 l 5
 1270 3076 1270 3076 1274 3154 c 5
 1626 3858 l 5
 1708 3997 1708 3998 1888 3924 c 5
 2035 3818 2036 3818 1921 3654 c 5
EndSplineSet
Refer: 36 69 N 1 0 0 1 0 0 0
Validated: 33
EndChar

StartChar: Ecircumflex
Encoding: 202 202 136
Width: 2457
VWidth: 4194
Flags: HW
HStem: 0 106<164 210> 0 213<901 1982> 1327 213<901 1761> 2654 213<901 1982> 2761 106<164 210>
VStem: 508 393<213 1327 1540 2654> 1270 328<-680 16>
LayerCount: 2
Fore
SplineSet
1270 16 m 5
 1597 16 l 5
 1597 -680 l 5
 1270 -680 l 5
 1270 16 l 5
EndSplineSet
Refer: 134 200 N 1 0 0 1 0 0 0
Validated: 5
EndChar

StartChar: Edieresis
Encoding: 203 203 137
Width: 2457
VWidth: 4194
Flags: HW
HStem: 0 106<164 210> 0 213<901 1982> 1327 213<901 1761> 2654 213<901 1982> 2761 106<164 210>
VStem: 508 393<213 1327 1540 2654> 1270 328<-680 16>
LayerCount: 2
Fore
SplineSet
1270 16 m 5
 1597 16 l 5
 1597 -680 l 5
 1270 -680 l 5
 1270 16 l 5
EndSplineSet
Refer: 135 201 N 1 0 0 1 0 0 0
Validated: 5
EndChar

StartChar: Iacute
Encoding: 205 205 139
Width: 1409
VWidth: 4194
Flags: HW
HStem: 0 106<164 210 1199 1245> 2761 106<164 210 1199 1245>
VStem: 508 393<213 2654>
LayerCount: 2
Fore
SplineSet
1290 3654 m 5
 717 3080 l 5
 639 3076 639 3076 643 3154 c 5
 995 3858 l 5
 1077 3997 1077 3998 1257 3924 c 5
 1404 3818 1405 3818 1290 3654 c 5
EndSplineSet
Refer: 40 73 N 1 0 0 1 0 0 0
Validated: 33
EndChar

StartChar: Icircumflex
Encoding: 206 206 140
Width: 1409
VWidth: 4194
Flags: HW
HStem: 0 106<164 210 1199 1245> 2761 106<164 210 1199 1245>
VStem: 508 393<213 2654>
LayerCount: 2
Fore
SplineSet
705 3498 m 5
 16 3154 l 5
 0 3170 l 5
 705 3875 l 5
 1409 3170 l 5
 1393 3154 l 5
 705 3498 l 5
EndSplineSet
Refer: 40 73 N 1 0 0 1 0 0 0
Validated: 1
EndChar

StartChar: Idieresis
Encoding: 207 207 141
Width: 1409
VWidth: 4194
Flags: HW
HStem: 0 106<164 210 1199 1245> 2761 106<164 210 1199 1245>
VStem: 508 393<213 2654>
LayerCount: 2
Fore
SplineSet
705 3531 m 5
 1393 3875 l 5
 1409 3858 l 5
 705 3154 l 5
 0 3858 l 5
 16 3875 l 5
 705 3531 l 5
EndSplineSet
Refer: 40 73 N 1 0 0 1 0 0 0
Validated: 1
EndChar

StartChar: Eth
Encoding: 208 208 142
Width: 3833
VWidth: 4194
Flags: HW
HStem: 0 106<164 210 1199 1245 2589 2635 3624 3670> 2761 106<164 210 3624 3670> 3244 262<526 3319>
VStem: 508 393<213 2654> 2933 393<213 2654>
LayerCount: 2
Fore
SplineSet
526 3244 m 5
 526 3506 l 5
 3319 3506 l 5
 3319 3244 l 5
 526 3244 l 5
EndSplineSet
Refer: 44 77 N 1 0 0 1 0 0 0
Validated: 1
EndChar

StartChar: Ntilde
Encoding: 209 209 143
Width: 3260
VWidth: 4194
Flags: HW
HStem: 0 106<164 210 1199 1245 3050 3097> 2761 106<164 210 2015 2062 3050 3097> 3244 262<510 2754>
VStem: 508 393<213 2589> 2359 393<279 2654>
LayerCount: 2
Fore
SplineSet
510 3244 m 5
 510 3506 l 5
 2755 3506 l 5
 2755 3244 l 5
 510 3244 l 5
EndSplineSet
Refer: 45 78 N 1 0 0 1 0 0 0
Validated: 1
EndChar

StartChar: Oacute
Encoding: 211 211 145
Width: 2916
VWidth: 4194
Flags: HW
HStem: 0 213<1189 1728> 2654 213<1189 1728>
VStem: 164 393<1024 1843> 2359 393<1024 1843>
LayerCount: 2
Fore
SplineSet
2060 3654 m 5
 1487 3080 l 5
 1409 3076 1409 3076 1413 3154 c 5
 1765 3858 l 5
 1847 3997 1848 3998 2028 3924 c 5
 2175 3818 2175 3818 2060 3654 c 5
EndSplineSet
Refer: 46 79 N 1 0 0 1 0 0 0
Validated: 33
EndChar

StartChar: Ocircumflex
Encoding: 212 212 146
Width: 2916
VWidth: 4194
Flags: HW
HStem: 0 213<1189 1728> 2654 213<1189 1728>
VStem: 164 393<1024 1843> 1294 328<-680 16> 2359 393<1024 1843>
CounterMasks: 1 38
LayerCount: 2
Fore
SplineSet
1294 16 m 5
 1622 16 l 5
 1622 -680 l 5
 1294 -680 l 5
 1294 16 l 5
EndSplineSet
Refer: 46 79 N 1 0 0 1 0 0 0
Validated: 5
EndChar

StartChar: Otilde
Encoding: 213 213 147
Width: 2916
VWidth: 4194
Flags: HW
HStem: 0 213<1189 1728> 2654 213<1189 1728>
VStem: 164 393<1024 1843> 1294 328<-680 16> 2359 393<1024 1843>
CounterMasks: 1 38
LayerCount: 2
Fore
SplineSet
1294 16 m 5
 1622 16 l 5
 1622 -680 l 5
 1294 -680 l 5
 1294 16 l 5
EndSplineSet
Refer: 144 210 N 1 0 0 1 0 0 0
Validated: 5
EndChar

StartChar: Odieresis
Encoding: 214 214 148
Width: 2916
VWidth: 4194
Flags: HW
HStem: 0 213<1189 1728> 2654 213<1189 1728>
VStem: 164 393<1024 1843> 1294 328<-680 16> 2359 393<1024 1843>
CounterMasks: 1 38
LayerCount: 2
Fore
SplineSet
1294 16 m 5
 1622 16 l 5
 1622 -680 l 5
 1294 -680 l 5
 1294 16 l 5
EndSplineSet
Refer: 145 211 N 1 0 0 1 0 0 0
Validated: 5
EndChar

StartChar: multiply
Encoding: 215 215 149
Width: 2801
VWidth: 4194
Flags: HW
LayerCount: 2
Fore
SplineSet
164 2458 m 1
 557 2458 l 1
 1384 1630 l 1
 2212 2458 l 1
 2605 2458 l 1
 1581 1434 l 1
 2605 410 l 1
 2212 410 l 1
 1384 1237 l 1
 557 410 l 1
 164 410 l 1
 1188 1434 l 1
 164 2458 l 1
EndSplineSet
Validated: 1
EndChar

StartChar: Oslash
Encoding: 216 216 150
Width: 3063
VWidth: 4194
Flags: HW
HStem: 0 213<1267 1797> 2761 106<164 210 2854 2900>
VStem: 508 393<586 2654> 2163 393<586 2654>
LayerCount: 2
Fore
SplineSet
1597 3195 m 5
 974 3588 975 3588 664 3162 c 5
 697 3490 696 3490 958 3629 c 4
 1220 3768 1221 3769 1663 3531 c 4
 2105 3293 2105 3293 2351 3686 c 5
 2285 2981 2285 2982 1597 3195 c 5
EndSplineSet
Refer: 52 85 N 1 0 0 1 0 0 0
Validated: 33
EndChar

StartChar: Uacute
Encoding: 218 218 152
Width: 3063
VWidth: 4194
Flags: HW
HStem: 0 213<1267 1797> 2761 106<164 210 2854 2900>
VStem: 508 393<586 2654> 2163 393<586 2654>
LayerCount: 2
Fore
SplineSet
2101 3654 m 5
 1528 3080 l 5
 1450 3076 1450 3076 1454 3154 c 5
 1806 3858 l 5
 1888 3997 1888 3998 2068 3924 c 5
 2215 3818 2216 3818 2101 3654 c 5
EndSplineSet
Refer: 52 85 N 1 0 0 1 0 0 0
Validated: 33
EndChar

StartChar: Ucircumflex
Encoding: 219 219 153
Width: 3063
VWidth: 4194
Flags: HW
HStem: 0 213<1267 1797> 2761 106<164 210 2854 2900>
VStem: 508 393<586 2654> 2163 393<586 2654>
LayerCount: 2
Fore
SplineSet
1532 3498 m 5
 844 3154 l 5
 827 3170 l 5
 1532 3875 l 5
 2236 3170 l 5
 2220 3154 l 5
 1532 3498 l 5
EndSplineSet
Refer: 52 85 N 1 0 0 1 0 0 0
Validated: 1
EndChar

StartChar: Udieresis
Encoding: 220 220 154
Width: 3063
VWidth: 4194
Flags: HW
HStem: 0 213<1267 1797> 2761 106<164 210 2854 2900>
VStem: 508 393<586 2654> 2163 393<586 2654>
LayerCount: 2
Fore
SplineSet
1532 3531 m 5
 2220 3875 l 5
 2236 3858 l 5
 1532 3154 l 5
 827 3858 l 5
 844 3875 l 5
 1532 3531 l 5
EndSplineSet
Refer: 52 85 N 1 0 0 1 0 0 0
Validated: 1
EndChar

StartChar: Thorn
Encoding: 222 222 156
Width: 3260
VWidth: 4194
Flags: HW
HStem: 0 106<164 210 1199 1245 3050 3097> 2761 106<164 210 2015 2062 3050 3097>
VStem: 508 393<213 2589> 2359 393<279 2654>
LayerCount: 2
Fore
SplineSet
2183 3654 m 5
 1610 3080 l 5
 1532 3076 1532 3076 1536 3154 c 5
 1888 3858 l 5
 1970 3997 1970 3998 2150 3924 c 5
 2297 3818 2298 3818 2183 3654 c 5
EndSplineSet
Refer: 45 78 N 1 0 0 1 0 0 0
Validated: 33
EndChar

StartChar: germandbls
Encoding: 223 223 157
Width: 2154
VWidth: 4194
Flags: HW
HStem: 0 43G<991 1395> 2826 41G<765 1125 1646 1673>
VStem: 180 115<637 721> 930 328<-680 16> 1589 393<518 922> 1638 131<2114 2247>
LayerCount: 2
Fore
SplineSet
930 16 m 5
 1257 16 l 5
 1257 -680 l 5
 930 -680 l 5
 930 16 l 5
EndSplineSet
Refer: 50 83 N 1 0 0 1 0 0 0
Validated: 5
EndChar

StartChar: aacute
Encoding: 225 225 159
Width: 1884
VWidth: 4194
Flags: HW
HStem: 0 213<641 1057> 958 213<622 1004> 1655 213<670 1029>
VStem: 164 287<404 771> 1208 393<330 794 983 1450>
LayerCount: 2
Fore
SplineSet
1438 2671 m 5
 864 2097 l 5
 786 2093 787 2093 791 2171 c 5
 1143 2875 l 5
 1225 3014 1225 3015 1405 2941 c 5
 1552 2835 1553 2835 1438 2671 c 5
EndSplineSet
Refer: 64 97 N 1 0 0 1 0 0 0
Validated: 33
EndChar

StartChar: acircumflex
Encoding: 226 226 160
Width: 1884
VWidth: 4194
Flags: HW
HStem: 0 213<641 1057> 958 213<622 1004> 1655 213<670 1029>
VStem: 164 287<404 771> 1208 393<330 794 983 1450>
LayerCount: 2
Fore
SplineSet
868 2441 m 5
 180 2097 l 5
 164 2114 l 5
 868 2818 l 5
 1573 2114 l 5
 1556 2097 l 5
 868 2441 l 5
EndSplineSet
Refer: 64 97 N 1 0 0 1 0 0 0
Validated: 1
EndChar

StartChar: adieresis
Encoding: 228 228 162
Width: 1884
VWidth: 4194
Flags: HW
HStem: 0 213<641 1057> 958 213<622 1004> 1655 213<670 1029>
VStem: 164 287<404 771> 1208 393<330 794 983 1450>
LayerCount: 2
Fore
SplineSet
868 2474 m 5
 1556 2818 l 5
 1573 2802 l 5
 868 2097 l 5
 164 2802 l 5
 180 2818 l 5
 868 2474 l 5
EndSplineSet
Refer: 64 97 N 1 0 0 1 0 0 0
Validated: 1
EndChar

StartChar: ae
Encoding: 230 230 164
Width: 1998
VWidth: 4194
Flags: HW
HStem: 0 213<855 1295> 1008 205<549 1532> 1827 41G<939 1177>
VStem: 164 369<682 1005>
LayerCount: 2
Fore
SplineSet
1032 2474 m 5
 1720 2818 l 5
 1737 2802 l 5
 1032 2097 l 5
 328 2802 l 5
 344 2818 l 5
 1032 2474 l 5
EndSplineSet
Refer: 68 101 N 1 0 0 1 0 0 0
Validated: 1
EndChar

StartChar: ccedilla
Encoding: 231 231 165
Width: 1998
VWidth: 4194
Flags: HW
HStem: 0 213<855 1295> 1008 205<549 1532> 1827 41G<939 1177>
VStem: 164 369<682 1005> 909 328<-614 82>
LayerCount: 2
Fore
SplineSet
909 82 m 5
 1237 82 l 5
 1237 -614 l 5
 909 -614 l 5
 909 82 l 5
EndSplineSet
Refer: 68 101 N 1 0 0 1 0 0 0
Validated: 5
EndChar

StartChar: eacute
Encoding: 233 233 167
Width: 1998
VWidth: 4194
Flags: HW
HStem: 0 213<855 1295> 1008 205<549 1532> 1827 41G<939 1177>
VStem: 164 369<682 1005>
LayerCount: 2
Fore
SplineSet
1667 2671 m 5
 1094 2097 l 5
 1016 2093 1016 2093 1020 2171 c 5
 1372 2875 l 5
 1454 3014 1454 3015 1634 2941 c 5
 1781 2835 1782 2835 1667 2671 c 5
EndSplineSet
Refer: 68 101 N 1 0 0 1 0 0 0
Validated: 33
EndChar

StartChar: ecircumflex
Encoding: 234 234 168
Width: 1998
VWidth: 4194
Flags: HW
HStem: 0 213<855 1295> 1008 205<549 1532> 1827 41G<939 1177>
VStem: 164 369<682 1005> 909 328<-614 82>
LayerCount: 2
Fore
SplineSet
909 82 m 5
 1237 82 l 5
 1237 -614 l 5
 909 -614 l 5
 909 82 l 5
EndSplineSet
Refer: 166 232 N 1 0 0 1 0 0 0
Validated: 5
EndChar

StartChar: edieresis
Encoding: 235 235 169
Width: 1998
VWidth: 4194
Flags: HW
HStem: 0 213<855 1295> 1008 205<549 1532> 1827 41G<939 1177>
VStem: 164 369<682 1005> 909 328<-614 82>
LayerCount: 2
Fore
SplineSet
909 82 m 5
 1237 82 l 5
 1237 -614 l 5
 909 -614 l 5
 909 82 l 5
EndSplineSet
Refer: 167 233 N 1 0 0 1 0 0 0
Validated: 5
EndChar

StartChar: igrave
Encoding: 236 236 170
Width: 1409
VWidth: 4194
Flags: HW
HStem: 0 106<164 210 1199 1245> 1827 41G<487 901>
VStem: 508 393<213 1356>
LayerCount: 2
Fore
SplineSet
901 1868 m 5
 901 213 l 5
 1245 106 l 5
 1245 0 l 5
 164 0 l 5
 164 106 l 5
 508 213 l 5
 508 1356 l 5
 238 1221 l 5
 205 1266 l 5
 508 1868 l 5
 901 1868 l 5
EndSplineSet
Refer: 63 96 N 1 0 0 1 -176 0 0
Validated: 1
EndChar

StartChar: iacute
Encoding: 237 237 171
Width: 1409
VWidth: 4194
Flags: HW
HStem: 0 106<164 210 1199 1245> 1827 41G<487 901>
VStem: 508 393<213 1356>
LayerCount: 2
Fore
SplineSet
1282 2671 m 5
 709 2097 l 5
 631 2093 631 2093 635 2171 c 5
 987 2875 l 5
 1069 3014 1069 3015 1249 2941 c 5
 1396 2835 1397 2835 1282 2671 c 5
901 1868 m 5
 901 213 l 5
 1245 106 l 5
 1245 0 l 5
 164 0 l 5
 164 106 l 5
 508 213 l 5
 508 1356 l 5
 238 1221 l 5
 205 1266 l 5
 508 1868 l 5
 901 1868 l 5
EndSplineSet
Validated: 33
EndChar

StartChar: icircumflex
Encoding: 238 238 172
Width: 1409
VWidth: 4194
Flags: HW
HStem: 0 106<164 210 1199 1245> 1827 41G<487 901>
VStem: 508 393<213 1356>
LayerCount: 2
Fore
SplineSet
705 2441 m 5
 16 2097 l 5
 0 2114 l 5
 705 2818 l 5
 1409 2114 l 5
 1393 2097 l 5
 705 2441 l 5
901 1868 m 5
 901 213 l 5
 1245 106 l 5
 1245 0 l 5
 164 0 l 5
 164 106 l 5
 508 213 l 5
 508 1356 l 5
 238 1221 l 5
 205 1266 l 5
 508 1868 l 5
 901 1868 l 5
EndSplineSet
Validated: 1
EndChar

StartChar: idieresis
Encoding: 239 239 173
Width: 1409
VWidth: 4194
Flags: HW
HStem: 0 106<164 210 1199 1245> 1827 41G<487 901>
VStem: 508 393<213 1356>
LayerCount: 2
Fore
SplineSet
705 2474 m 5
 1393 2818 l 5
 1409 2802 l 5
 705 2097 l 5
 0 2802 l 5
 16 2818 l 5
 705 2474 l 5
901 1868 m 5
 901 213 l 5
 1245 106 l 5
 1245 0 l 5
 164 0 l 5
 164 106 l 5
 508 213 l 5
 508 1356 l 5
 238 1221 l 5
 205 1266 l 5
 508 1868 l 5
 901 1868 l 5
EndSplineSet
Validated: 1
EndChar

StartChar: eth
Encoding: 240 240 174
Width: 4046
VWidth: 4194
Flags: HW
HStem: 0 106<164 210 3837 3883> 1655 213<1236 1639 2556 2954> 1761 102<287 393> 2245 262<510 3340>
VStem: 508 393<213 1430 1630 1647> 1827 393<213 1384> 3146 393<213 1459>
CounterMasks: 1 0e
LayerCount: 2
Fore
SplineSet
510 2245 m 5
 510 2507 l 5
 3340 2507 l 5
 3340 2245 l 5
 510 2245 l 5
EndSplineSet
Refer: 76 109 N 1 0 0 1 0 0 0
Validated: 1
EndChar

StartChar: ntilde
Encoding: 241 241 175
Width: 2727
VWidth: 4194
Flags: HW
HStem: 0 106<164 210 2518 2564> 1655 213<1216 1636> 1761 102<287 393> 2236 262<508 2220>
VStem: 508 393<213 1390 1581 1647> 1827 393<213 1462>
LayerCount: 2
Fore
SplineSet
508 2236 m 5
 508 2499 l 5
 2220 2499 l 5
 2220 2236 l 5
 508 2236 l 5
EndSplineSet
Refer: 77 110 N 1 0 0 1 0 0 0
Validated: 1
EndChar

StartChar: oacute
Encoding: 243 243 177
Width: 2195
VWidth: 4194
Flags: HW
HStem: 0 213<888 1308> 1655 213<888 1308>
VStem: 164 393<615 1253> 1638 393<615 1253>
LayerCount: 2
Fore
SplineSet
1708 2671 m 5
 1135 2097 l 5
 1057 2093 1057 2093 1061 2171 c 5
 1413 2875 l 5
 1495 3014 1495 3015 1675 2941 c 5
 1822 2835 1823 2835 1708 2671 c 5
EndSplineSet
Refer: 78 111 N 1 0 0 1 0 0 0
Validated: 33
EndChar

StartChar: ocircumflex
Encoding: 244 244 178
Width: 2195
VWidth: 4194
Flags: HW
HStem: 0 213<888 1308> 1655 213<888 1308>
VStem: 164 393<615 1253> 934 328<-614 82> 1638 393<615 1253>
CounterMasks: 1 38
LayerCount: 2
Fore
SplineSet
934 82 m 5
 1262 82 l 5
 1262 -614 l 5
 934 -614 l 5
 934 82 l 5
EndSplineSet
Refer: 78 111 N 1 0 0 1 0 0 0
Validated: 5
EndChar

StartChar: otilde
Encoding: 245 245 179
Width: 2195
VWidth: 4194
Flags: HW
HStem: 0 213<888 1308> 1655 213<888 1308>
VStem: 164 393<615 1253> 934 328<-614 82> 1638 393<615 1253>
CounterMasks: 1 38
LayerCount: 2
Fore
SplineSet
934 82 m 5
 1262 82 l 5
 1262 -614 l 5
 934 -614 l 5
 934 82 l 5
EndSplineSet
Refer: 176 242 N 1 0 0 1 0 0 0
Validated: 5
EndChar

StartChar: odieresis
Encoding: 246 246 180
Width: 2195
VWidth: 4194
Flags: HW
HStem: 0 213<888 1308> 1655 213<888 1308>
VStem: 164 393<615 1253> 934 328<-614 82> 1638 393<615 1253>
CounterMasks: 1 38
LayerCount: 2
Fore
SplineSet
934 82 m 5
 1262 82 l 5
 1262 -614 l 5
 934 -614 l 5
 934 82 l 5
EndSplineSet
Refer: 177 243 N 1 0 0 1 0 0 0
Validated: 5
EndChar

StartChar: uacute
Encoding: 250 250 184
Width: 2482
VWidth: 4194
Flags: HW
HStem: 0 106<2212 2318> 0 213<970 1369> 1761 106<164 279 2204 2318>
VStem: 385 393<409 1655> 1704 393<221 238 438 1655>
LayerCount: 2
Fore
SplineSet
1896 2671 m 5
 1323 2097 l 5
 1245 2093 1245 2093 1249 2171 c 5
 1602 2875 l 5
 1684 3014 1684 3015 1864 2941 c 5
 2011 2835 2011 2835 1896 2671 c 5
EndSplineSet
Refer: 84 117 N 1 0 0 1 0 0 0
Validated: 33
EndChar

StartChar: ucircumflex
Encoding: 251 251 185
Width: 2482
VWidth: 4194
Flags: HW
HStem: 0 106<2212 2318> 0 213<970 1369> 1761 106<164 279 2204 2318>
VStem: 385 393<409 1655> 1704 393<221 238 438 1655>
LayerCount: 2
Fore
SplineSet
1245 2441 m 5
 557 2097 l 5
 541 2114 l 5
 1245 2818 l 5
 1950 2114 l 5
 1933 2097 l 5
 1245 2441 l 5
EndSplineSet
Refer: 84 117 N 1 0 0 1 0 0 0
Validated: 1
EndChar

StartChar: udieresis
Encoding: 252 252 186
Width: 2482
VWidth: 4194
Flags: HW
HStem: 0 106<2212 2318> 0 213<970 1369> 1761 106<164 279 2204 2318>
VStem: 385 393<409 1655> 1704 393<221 238 438 1655>
LayerCount: 2
Fore
SplineSet
1229 2474 m 5
 1917 2818 l 5
 1933 2802 l 5
 1229 2097 l 5
 524 2802 l 5
 541 2818 l 5
 1229 2474 l 5
EndSplineSet
Refer: 84 117 N 1 0 0 1 0 0 0
Validated: 1
EndChar

StartChar: thorn
Encoding: 254 254 188
Width: 2727
VWidth: 4194
Flags: HW
HStem: 0 106<164 210 2518 2564> 1655 213<1216 1636> 1761 102<287 393>
VStem: 508 393<213 1390 1581 1647> 1827 393<213 1462>
LayerCount: 2
Fore
SplineSet
2068 2671 m 5
 1495 2097 l 5
 1417 2093 1417 2093 1421 2171 c 5
 1774 2875 l 5
 1856 3014 1856 3015 2036 2941 c 5
 2183 2835 2183 2835 2068 2671 c 5
EndSplineSet
Refer: 77 110 N 1 0 0 1 0 0 0
Validated: 33
EndChar

StartChar: ydieresis
Encoding: 255 255 189
Width: 1835
VWidth: 4194
Flags: HW
HStem: 0 213<575 1124> 1655 213<565 1138>
VStem: 164 164<382 614> 164 279<1367 1562> 729 328<-614 82> 1311 164<1376 1542> 1323 348<347 556>
LayerCount: 2
Fore
SplineSet
729 82 m 5
 1057 82 l 5
 1057 -614 l 5
 729 -614 l 5
 729 82 l 5
EndSplineSet
Refer: 82 115 N 1 0 0 1 0 0 0
Validated: 5
EndChar
